<svg xmlns="http://www.w3.org/2000/svg" width="1920" height="1080"><path d="M979,838L1289,875L1335,518Z" fill="#7f7f7f" stroke="#7f7f7f" stroke-width="1.51"/><path d="M1335,518L942,515L979,838Z" fill="#8b8b8b" stroke="#8b8b8b" stroke-width="1.51"/><path d="M1335,518L1266,226L942,515Z" fill="#939393" stroke="#939393" stroke-width="1.51"/><path d="M1335,518L1614,183L1266,226Z" fill="#909090" stroke="#909090" stroke-width="1.51"/><path d="M1289,875L1637,517L1335,518Z" fill="#7c7c7c" stroke="#7c7c7c" stroke-width="1.51"/><path d="M1266,226L931,197L942,515Z" fill="#a0a0a0" stroke="#a0a0a0" stroke-width="1.51"/><path d="M942,515L632,575L979,838Z" fill="#959595" stroke="#959595" stroke-width="1.51"/><path d="M665,249L632,575L942,515Z" fill="#a6a6a6" stroke="#a6a6a6" stroke-width="1.51"/><path d="M1289,875L1655,920L1637,517Z" fill="#6f6f6f" stroke="#6f6f6f" stroke-width="1.51"/><path d="M1319,1257L1655,920L1289,875Z" fill="#666666" stroke="#666666" stroke-width="1.51"/><path d="M1009,1283L1319,1257L1289,875Z" fill="#696969" stroke="#696969" stroke-width="1.51"/><path d="M1009,1283L1289,875L979,838Z" fill="#767676" stroke="#767676" stroke-width="1.51"/><path d="M565,1238L1009,1283L979,838Z" fill="#7a7a7a" stroke="#7a7a7a" stroke-width="1.51"/><path d="M632,575L565,882L979,838Z" fill="#949494" stroke="#949494" stroke-width="1.51"/><path d="M931,197L665,249L942,515Z" fill="#a9a9a9" stroke="#a9a9a9" stroke-width="1.51"/><path d="M632,575L268,585L565,882Z" fill="#a4a4a4" stroke="#a4a4a4" stroke-width="1.51"/><path d="M1637,517L1614,183L1335,518Z" fill="#848484" stroke="#848484" stroke-width="1.51"/><path d="M1266,226L947,-137L931,197Z" fill="#acacac" stroke="#acacac" stroke-width="1.51"/><path d="M1655,920L1959,875L1637,517Z" fill="#656565" stroke="#656565" stroke-width="1.51"/><path d="M1637,517L1998,193L1614,183Z" fill="#818181" stroke="#818181" stroke-width="1.51"/><path d="M1319,1257L1700,1185L1655,920Z" fill="#5b5b5b" stroke="#5b5b5b" stroke-width="1.51"/><path d="M565,882L565,1238L979,838Z" fill="#898989" stroke="#898989" stroke-width="1.51"/><path d="M1700,1185L1959,875L1655,920Z" fill="#585858" stroke="#585858" stroke-width="1.51"/><path d="M1614,183L1293,-142L1266,226Z" fill="#9c9c9c" stroke="#9c9c9c" stroke-width="1.51"/><path d="M931,197L947,-137L665,249Z" fill="#b5b5b5" stroke="#b5b5b5" stroke-width="1.51"/><path d="M1959,875L1983,575L1637,517Z" fill="#646464" stroke="#646464" stroke-width="1.51"/><path d="M1293,-142L947,-137L1266,226Z" fill="#ababab" stroke="#ababab" stroke-width="1.51"/><path d="M307,140L268,585L665,249Z" fill="#bdbdbd" stroke="#bdbdbd" stroke-width="1.51"/><path d="M665,249L268,585L632,575Z" fill="#b0b0b0" stroke="#b0b0b0" stroke-width="1.51"/><path d="M565,882L321,1214L565,1238Z" fill="#8b8b8b" stroke="#8b8b8b" stroke-width="1.51"/><path d="M1614,183L1603,-109L1293,-142Z" fill="#9c9c9c" stroke="#9c9c9c" stroke-width="1.51"/><path d="M1989,-119L1603,-109L1614,183Z" fill="#909090" stroke="#909090" stroke-width="1.51"/><path d="M1319,1257L1677,1628L1700,1185Z" fill="#484848" stroke="#484848" stroke-width="1.51"/><path d="M1009,1283L1330,1565L1319,1257Z" fill="#555555" stroke="#555555" stroke-width="1.51"/><path d="M994,1578L1330,1565L1009,1283Z" fill="#525252" stroke="#525252" stroke-width="1.51"/><path d="M648,1630L994,1578L1009,1283Z" fill="#5b5b5b" stroke="#5b5b5b" stroke-width="1.51"/><path d="M268,585L217,845L565,882Z" fill="#a3a3a3" stroke="#a3a3a3" stroke-width="1.51"/><path d="M1983,575L1998,193L1637,517Z" fill="#717171" stroke="#717171" stroke-width="1.51"/><path d="M1700,1185L1950,1262L1959,875Z" fill="#4c4c4c" stroke="#4c4c4c" stroke-width="1.51"/><path d="M2360,849L2335,580L1983,575Z" fill="#4f4f4f" stroke="#4f4f4f" stroke-width="1.51"/><path d="M1677,1628L1950,1262L1700,1185Z" fill="#3f3f3f" stroke="#3f3f3f" stroke-width="1.51"/><path d="M217,845L321,1214L565,882Z" fill="#969696" stroke="#969696" stroke-width="1.51"/><path d="M565,1238L648,1630L1009,1283Z" fill="#6a6a6a" stroke="#6a6a6a" stroke-width="1.51"/><path d="M-91,586L-33,919L217,845Z" fill="#adadad" stroke="#adadad" stroke-width="1.51"/><path d="M573,-192L307,140L665,249Z" fill="#c7c7c7" stroke="#c7c7c7" stroke-width="1.51"/><path d="M947,-137L573,-192L665,249Z" fill="#c1c1c1" stroke="#c1c1c1" stroke-width="1.51"/><path d="M612,-499L573,-192L947,-137Z" fill="#cccccc" stroke="#cccccc" stroke-width="1.51"/><path d="M243,1601L648,1630L565,1238Z" fill="#6c6c6c" stroke="#6c6c6c" stroke-width="1.51"/><path d="M1297,1887L1677,1628L1330,1565Z" fill="#393939" stroke="#393939" stroke-width="1.51"/><path d="M1297,1887L1330,1565L994,1578Z" fill="#434343" stroke="#434343" stroke-width="1.51"/><path d="M1330,1565L1677,1628L1319,1257Z" fill="#444444" stroke="#444444" stroke-width="1.51"/><path d="M1293,-142L1290,-449L947,-137Z" fill="#b3b3b3" stroke="#b3b3b3" stroke-width="1.51"/><path d="M1603,-109L1290,-449L1293,-142Z" fill="#a9a9a9" stroke="#a9a9a9" stroke-width="1.51"/><path d="M1610,-503L1290,-449L1603,-109Z" fill="#a8a8a8" stroke="#a8a8a8" stroke-width="1.51"/><path d="M1998,193L1989,-119L1614,183Z" fill="#838383" stroke="#838383" stroke-width="1.51"/><path d="M1983,575L2335,580L1998,193Z" fill="#616161" stroke="#616161" stroke-width="1.51"/><path d="M1998,193L2305,150L1989,-119Z" fill="#757575" stroke="#757575" stroke-width="1.51"/><path d="M2360,849L1983,575L1959,875Z" fill="#505050" stroke="#505050" stroke-width="1.51"/><path d="M1290,-449L974,-517L947,-137Z" fill="#bdbdbd" stroke="#bdbdbd" stroke-width="1.51"/><path d="M321,1214L243,1601L565,1238Z" fill="#7b7b7b" stroke="#7b7b7b" stroke-width="1.51"/><path d="M217,845L-33,919L321,1214Z" fill="#9c9c9c" stroke="#9c9c9c" stroke-width="1.51"/><path d="M-91,586L217,845L268,585Z" fill="#b1b1b1" stroke="#b1b1b1" stroke-width="1.51"/><path d="M2360,1253L1959,875L1950,1262Z" fill="#3e3e3e" stroke="#3e3e3e" stroke-width="1.51"/><path d="M2360,1253L2360,849L1959,875Z" fill="#3e3e3e" stroke="#3e3e3e" stroke-width="1.51"/><path d="M1002,1910L1297,1887L994,1578Z" fill="#434343" stroke="#434343" stroke-width="1.51"/><path d="M648,1630L1002,1910L994,1578Z" fill="#4f4f4f" stroke="#4f4f4f" stroke-width="1.51"/><path d="M-109,164L-91,586L268,585Z" fill="#c2c2c2" stroke="#c2c2c2" stroke-width="1.51"/><path d="M-109,164L268,585L307,140Z" fill="#c8c8c8" stroke="#c8c8c8" stroke-width="1.51"/><path d="M1290,-449L1610,-503L974,-517Z" fill="#b5b5b5" stroke="#b5b5b5" stroke-width="1.51"/><path d="M1989,-119L1610,-503L1603,-109Z" fill="#999999" stroke="#999999" stroke-width="1.51"/><path d="M1989,-119L2036,-509L1610,-503Z" fill="#949494" stroke="#949494" stroke-width="1.51"/><path d="M2335,580L2305,150L1998,193Z" fill="#646464" stroke="#646464" stroke-width="1.51"/><path d="M2366,-543L2305,150L2335,580Z" fill="#696969" stroke="#696969" stroke-width="1.51"/><path d="M573,-192L233,-193L307,140Z" fill="#d2d2d2" stroke="#d2d2d2" stroke-width="1.51"/><path d="M287,-488L233,-193L573,-192Z" fill="#dbdbdb" stroke="#dbdbdb" stroke-width="1.51"/><path d="M974,-517L612,-499L947,-137Z" fill="#c8c8c8" stroke="#c8c8c8" stroke-width="1.51"/><path d="M1677,1628L2046,1617L1950,1262Z" fill="#2f2f2f" stroke="#2f2f2f" stroke-width="1.51"/><path d="M2045,1884L2046,1617L1677,1628Z" fill="#232323" stroke="#232323" stroke-width="1.51"/><path d="M648,1630L562,1893L1002,1910Z" fill="#535353" stroke="#535353" stroke-width="1.51"/><path d="M-68,1236L243,1601L321,1214Z" fill="#818181" stroke="#818181" stroke-width="1.51"/><path d="M2297,1529L2360,1253L1950,1262Z" fill="#292929" stroke="#292929" stroke-width="1.51"/><path d="M-33,919L-68,1236L321,1214Z" fill="#979797" stroke="#979797" stroke-width="1.51"/><path d="M-398,1249L-68,1236L-33,919Z" fill="#9d9d9d" stroke="#9d9d9d" stroke-width="1.51"/><path d="M243,1601L562,1893L648,1630Z" fill="#5f5f5f" stroke="#5f5f5f" stroke-width="1.51"/><path d="M-398,1249L-82,1630L-68,1236Z" fill="#898989" stroke="#898989" stroke-width="1.51"/><path d="M-66,-101L-109,164L307,140Z" fill="#d7d7d7" stroke="#d7d7d7" stroke-width="1.51"/><path d="M1297,1887L1671,1946L1677,1628Z" fill="#323232" stroke="#323232" stroke-width="1.51"/><path d="M1002,1910L1671,1946L1297,1887Z" fill="#3a3a3a" stroke="#3a3a3a" stroke-width="1.51"/><path d="M313,1936L1671,1946L1002,1910Z" fill="#484848" stroke="#484848" stroke-width="1.51"/><path d="M2305,150L2288,-113L1989,-119Z" fill="#747474" stroke="#747474" stroke-width="1.51"/><path d="M2366,-543L2288,-113L2305,150Z" fill="#737373" stroke="#737373" stroke-width="1.51"/><path d="M2046,1617L2297,1529L1950,1262Z" fill="#252525" stroke="#252525" stroke-width="1.51"/><path d="M2045,1884L2297,1529L2046,1617Z" fill="#1a1a1a" stroke="#1a1a1a" stroke-width="1.51"/><path d="M-37,-462L-66,-101L233,-193Z" fill="#e4e4e4" stroke="#e4e4e4" stroke-width="1.51"/><path d="M233,-193L-66,-101L307,140Z" fill="#d9d9d9" stroke="#d9d9d9" stroke-width="1.51"/><path d="M612,-499L287,-488L573,-192Z" fill="#dadada" stroke="#dadada" stroke-width="1.51"/><path d="M974,-517L287,-488L612,-499Z" fill="#d7d7d7" stroke="#d7d7d7" stroke-width="1.51"/><path d="M2288,-113L2036,-509L1989,-119Z" fill="#808080" stroke="#808080" stroke-width="1.51"/><path d="M1610,-503L2366,-543L974,-517Z" fill="#a5a5a5" stroke="#a5a5a5" stroke-width="1.51"/><path d="M1671,1946L2045,1884L1677,1628Z" fill="#282828" stroke="#282828" stroke-width="1.51"/><path d="M562,1893L313,1936L1002,1910Z" fill="#585858" stroke="#585858" stroke-width="1.51"/><path d="M243,1601L313,1936L562,1893Z" fill="#606060" stroke="#606060" stroke-width="1.51"/><path d="M-82,1630L313,1936L243,1601Z" fill="#696969" stroke="#696969" stroke-width="1.51"/><path d="M-68,1236L-82,1630L243,1601Z" fill="#7a7a7a" stroke="#7a7a7a" stroke-width="1.51"/><path d="M-472,933L-33,919L-91,586Z" fill="#b1b1b1" stroke="#b1b1b1" stroke-width="1.51"/><path d="M-109,164L-477,525L-91,586Z" fill="#cacaca" stroke="#cacaca" stroke-width="1.51"/><path d="M-474,228L-477,525L-109,164Z" fill="#d5d5d5" stroke="#d5d5d5" stroke-width="1.51"/><path d="M-477,525L-472,933L-91,586Z" fill="#bbbbbb" stroke="#bbbbbb" stroke-width="1.51"/><path d="M287,-488L-37,-462L233,-193Z" fill="#e5e5e5" stroke="#e5e5e5" stroke-width="1.51"/><path d="M-424,-142L-474,228L-109,164Z" fill="#e0e0e0" stroke="#e0e0e0" stroke-width="1.51"/><path d="M-472,933L-398,1249L-33,919Z" fill="#a6a6a6" stroke="#a6a6a6" stroke-width="1.51"/><path d="M-424,-142L-109,164L-66,-101Z" fill="#e2e2e2" stroke="#e2e2e2" stroke-width="1.51"/><path d="M2288,-113L2366,-543L2036,-509Z" fill="#7e7e7e" stroke="#7e7e7e" stroke-width="1.51"/><path d="M2036,-509L2366,-543L1610,-503Z" fill="#8f8f8f" stroke="#8f8f8f" stroke-width="1.51"/><path d="M2360,849L2366,-543L2335,580Z" fill="#5e5e5e" stroke="#5e5e5e" stroke-width="1.51"/><path d="M2396,1973L2366,-543L2360,849Z" fill="#444444" stroke="#444444" stroke-width="1.51"/><path d="M-37,-462L-424,-142L-66,-101Z" fill="#eaeaea" stroke="#eaeaea" stroke-width="1.51"/><path d="M2360,1253L2396,1973L2360,849Z" fill="#222222" stroke="#222222" stroke-width="1.51"/><path d="M2297,1529L2396,1973L2360,1253Z" fill="#161616" stroke="#161616" stroke-width="1.51"/><path d="M2045,1884L2396,1973L2297,1529Z" fill="#111111" stroke="#111111" stroke-width="1.51"/><path d="M1671,1946L2396,1973L2045,1884Z" fill="#1b1b1b" stroke="#1b1b1b" stroke-width="1.51"/><path d="M-124,1958L2396,1973L1671,1946Z" fill="#3b3b3b" stroke="#3b3b3b" stroke-width="1.51"/><path d="M313,1936L-124,1958L1671,1946Z" fill="#585858" stroke="#585858" stroke-width="1.51"/><path d="M-82,1630L-124,1958L313,1936Z" fill="#6a6a6a" stroke="#6a6a6a" stroke-width="1.51"/><path d="M-385,1886L-124,1958L-82,1630Z" fill="#707070" stroke="#707070" stroke-width="1.51"/><path d="M-398,1249L-438,1603L-82,1630Z" fill="#828282" stroke="#828282" stroke-width="1.51"/><path d="M-472,933L-438,1603L-398,1249Z" fill="#979797" stroke="#979797" stroke-width="1.51"/><path d="M-424,-142L-422,-454L-474,228Z" fill="#ebebeb" stroke="#ebebeb" stroke-width="1.51"/><path d="M-37,-462L-422,-454L-424,-142Z" fill="#f1f1f1" stroke="#f1f1f1" stroke-width="1.51"/><path d="M287,-488L-422,-454L-37,-462Z" fill="#eeeeee" stroke="#eeeeee" stroke-width="1.51"/><path d="M-438,1603L-385,1886L-82,1630Z" fill="#757575" stroke="#757575" stroke-width="1.51"/></svg>