<svg xmlns="http://www.w3.org/2000/svg" width="1440" height="900"><path d="M959,449L1004,257L746,357Z" fill="#5f5f5f" stroke="#5f5f5f" stroke-width="1.51"/><path d="M1004,257L731,113L746,357Z" fill="#555555" stroke="#555555" stroke-width="1.51"/><path d="M925,-70L760,8L731,113Z" fill="#484848" stroke="#484848" stroke-width="1.51"/><path d="M1223,367L1156,126L1004,257Z" fill="#626262" stroke="#626262" stroke-width="1.51"/><path d="M959,449L1223,367L1004,257Z" fill="#666666" stroke="#666666" stroke-width="1.51"/><path d="M925,-70L731,113L1004,257Z" fill="#505050" stroke="#505050" stroke-width="1.51"/><path d="M774,764L1042,649L959,449Z" fill="#6e6e6e" stroke="#6e6e6e" stroke-width="1.51"/><path d="M959,449L1042,649L1223,367Z" fill="#6d6d6d" stroke="#6d6d6d" stroke-width="1.51"/><path d="M760,8L541,207L731,113Z" fill="#484848" stroke="#484848" stroke-width="1.51"/><path d="M731,113L541,207L746,357Z" fill="#4e4e4e" stroke="#4e4e4e" stroke-width="1.51"/><path d="M746,357L774,764L959,449Z" fill="#646464" stroke="#646464" stroke-width="1.51"/><path d="M1156,126L925,-70L1004,257Z" fill="#565656" stroke="#565656" stroke-width="1.51"/><path d="M1156,126L1197,43L925,-70Z" fill="#555555" stroke="#555555" stroke-width="1.51"/><path d="M1360,129L1197,43L1156,126Z" fill="#5f5f5f" stroke="#5f5f5f" stroke-width="1.51"/><path d="M388,488L774,764L746,357Z" fill="#5d5d5d" stroke="#5d5d5d" stroke-width="1.51"/><path d="M1042,649L1235,633L1223,367Z" fill="#757575" stroke="#757575" stroke-width="1.51"/><path d="M1020,957L1235,633L1042,649Z" fill="#7d7d7d" stroke="#7d7d7d" stroke-width="1.51"/><path d="M1523,487L1360,129L1223,367Z" fill="#727272" stroke="#727272" stroke-width="1.51"/><path d="M1223,367L1360,129L1156,126Z" fill="#656565" stroke="#656565" stroke-width="1.51"/><path d="M541,207L388,488L746,357Z" fill="#4f4f4f" stroke="#4f4f4f" stroke-width="1.51"/><path d="M925,-70L725,-221L760,8Z" fill="#424242" stroke="#424242" stroke-width="1.51"/><path d="M760,8L384,-81L541,207Z" fill="#404040" stroke="#404040" stroke-width="1.51"/><path d="M1170,-289L906,-209L925,-70Z" fill="#454545" stroke="#454545" stroke-width="1.51"/><path d="M1170,-289L925,-70L1197,43Z" fill="#4e4e4e" stroke="#4e4e4e" stroke-width="1.51"/><path d="M906,-209L725,-221L925,-70Z" fill="#404040" stroke="#404040" stroke-width="1.51"/><path d="M541,207L253,439L388,488Z" fill="#4a4a4a" stroke="#4a4a4a" stroke-width="1.51"/><path d="M481,981L698,973L774,764Z" fill="#727272" stroke="#727272" stroke-width="1.51"/><path d="M134,159L253,439L541,207Z" fill="#414141" stroke="#414141" stroke-width="1.51"/><path d="M774,764L1020,957L1042,649Z" fill="#787878" stroke="#787878" stroke-width="1.51"/><path d="M698,973L1020,957L774,764Z" fill="#7a7a7a" stroke="#7a7a7a" stroke-width="1.51"/><path d="M725,-221L384,-81L760,8Z" fill="#3b3b3b" stroke="#3b3b3b" stroke-width="1.51"/><path d="M1235,633L1523,487L1223,367Z" fill="#797979" stroke="#797979" stroke-width="1.51"/><path d="M1408,909L1462,637L1235,633Z" fill="#888888" stroke="#888888" stroke-width="1.51"/><path d="M1462,637L1523,487L1235,633Z" fill="#828282" stroke="#828282" stroke-width="1.51"/><path d="M371,796L774,764L388,488Z" fill="#606060" stroke="#606060" stroke-width="1.51"/><path d="M906,-209L475,-360L725,-221Z" fill="#353535" stroke="#353535" stroke-width="1.51"/><path d="M1510,-184L1170,-289L1197,43Z" fill="#545454" stroke="#545454" stroke-width="1.51"/><path d="M1510,-184L1197,43L1360,129Z" fill="#5e5e5e" stroke="#5e5e5e" stroke-width="1.51"/><path d="M177,695L371,796L388,488Z" fill="#565656" stroke="#565656" stroke-width="1.51"/><path d="M1462,637L1602,536L1523,487Z" fill="#858585" stroke="#858585" stroke-width="1.51"/><path d="M1750,205L1552,-20L1360,129Z" fill="#6d6d6d" stroke="#6d6d6d" stroke-width="1.51"/><path d="M1627,609L1602,536L1462,637Z" fill="#898989" stroke="#898989" stroke-width="1.51"/><path d="M1020,957L1159,1027L1235,633Z" fill="#868686" stroke="#868686" stroke-width="1.51"/><path d="M1068,1165L1159,1027L1020,957Z" fill="#8e8e8e" stroke="#8e8e8e" stroke-width="1.51"/><path d="M1750,205L1360,129L1523,487Z" fill="#767676" stroke="#767676" stroke-width="1.51"/><path d="M177,695L332,849L371,796Z" fill="#5c5c5c" stroke="#5c5c5c" stroke-width="1.51"/><path d="M371,796L481,981L774,764Z" fill="#6a6a6a" stroke="#6a6a6a" stroke-width="1.51"/><path d="M332,849L481,981L371,796Z" fill="#656565" stroke="#656565" stroke-width="1.51"/><path d="M764,1239L1068,1165L1020,957Z" fill="#8c8c8c" stroke="#8c8c8c" stroke-width="1.51"/><path d="M384,-81L134,159L541,207Z" fill="#3a3a3a" stroke="#3a3a3a" stroke-width="1.51"/><path d="M253,439L177,695L388,488Z" fill="#4e4e4e" stroke="#4e4e4e" stroke-width="1.51"/><path d="M1159,1027L1408,909L1235,633Z" fill="#8b8b8b" stroke="#8b8b8b" stroke-width="1.51"/><path d="M1600,973L1627,609L1462,637Z" fill="#929292" stroke="#929292" stroke-width="1.51"/><path d="M1602,536L1750,205L1523,487Z" fill="#818181" stroke="#818181" stroke-width="1.51"/><path d="M14,462L177,695L253,439Z" fill="#494949" stroke="#494949" stroke-width="1.51"/><path d="M384,-81L165,-90L134,159Z" fill="#303030" stroke="#303030" stroke-width="1.51"/><path d="M725,-221L475,-360L384,-81Z" fill="#313131" stroke="#313131" stroke-width="1.51"/><path d="M1170,-289L475,-360L906,-209Z" fill="#3a3a3a" stroke="#3a3a3a" stroke-width="1.51"/><path d="M1552,-20L1510,-184L1360,129Z" fill="#626262" stroke="#626262" stroke-width="1.51"/><path d="M219,-366L165,-90L384,-81Z" fill="#292929" stroke="#292929" stroke-width="1.51"/><path d="M1374,1212L1600,973L1408,909Z" fill="#9e9e9e" stroke="#9e9e9e" stroke-width="1.51"/><path d="M764,1239L1020,957L698,973Z" fill="#838383" stroke="#838383" stroke-width="1.51"/><path d="M165,-90L70,55L134,159Z" fill="#2e2e2e" stroke="#2e2e2e" stroke-width="1.51"/><path d="M134,159L14,462L253,439Z" fill="#3f3f3f" stroke="#3f3f3f" stroke-width="1.51"/><path d="M1962,262L1750,205L1954,507Z" fill="#858585" stroke="#858585" stroke-width="1.51"/><path d="M1552,-20L1793,-42L1510,-184Z" fill="#656565" stroke="#656565" stroke-width="1.51"/><path d="M-82,157L14,462L134,159Z" fill="#353535" stroke="#353535" stroke-width="1.51"/><path d="M418,1174L764,1239L698,973Z" fill="#7e7e7e" stroke="#7e7e7e" stroke-width="1.51"/><path d="M418,1174L698,973L481,981Z" fill="#757575" stroke="#757575" stroke-width="1.51"/><path d="M1954,507L1750,205L1602,536Z" fill="#888888" stroke="#888888" stroke-width="1.51"/><path d="M1408,909L1600,973L1462,637Z" fill="#949494" stroke="#949494" stroke-width="1.51"/><path d="M1285,1208L1408,909L1159,1027Z" fill="#979797" stroke="#979797" stroke-width="1.51"/><path d="M475,-360L219,-366L384,-81Z" fill="#282828" stroke="#282828" stroke-width="1.51"/><path d="M-278,-104L-82,157L70,55Z" fill="#262626" stroke="#262626" stroke-width="1.51"/><path d="M288,1167L418,1174L481,981Z" fill="#727272" stroke="#727272" stroke-width="1.51"/><path d="M288,1167L481,981L332,849Z" fill="#6b6b6b" stroke="#6b6b6b" stroke-width="1.51"/><path d="M288,1167L332,849L-67,940Z" fill="#626262" stroke="#626262" stroke-width="1.51"/><path d="M1068,1165L1285,1208L1159,1027Z" fill="#979797" stroke="#979797" stroke-width="1.51"/><path d="M1032,1337L1285,1208L1068,1165Z" fill="#9c9c9c" stroke="#9c9c9c" stroke-width="1.51"/><path d="M70,55L-82,157L134,159Z" fill="#2f2f2f" stroke="#2f2f2f" stroke-width="1.51"/><path d="M-206,-247L70,55L165,-90Z" fill="#232323" stroke="#232323" stroke-width="1.51"/><path d="M1750,205L1793,-42L1552,-20Z" fill="#707070" stroke="#707070" stroke-width="1.51"/><path d="M1237,1402L1374,1212L1285,1208Z" fill="#a6a6a6" stroke="#a6a6a6" stroke-width="1.51"/><path d="M1285,1208L1374,1212L1408,909Z" fill="#9f9f9f" stroke="#9f9f9f" stroke-width="1.51"/><path d="M764,1239L1032,1337L1068,1165Z" fill="#949494" stroke="#949494" stroke-width="1.51"/><path d="M635,1500L1032,1337L764,1239Z" fill="#919191" stroke="#919191" stroke-width="1.51"/><path d="M14,462L-93,621L177,695Z" fill="#474747" stroke="#474747" stroke-width="1.51"/><path d="M-206,352L-93,621L14,462Z" fill="#3c3c3c" stroke="#3c3c3c" stroke-width="1.51"/><path d="M418,1174L635,1500L764,1239Z" fill="#878787" stroke="#878787" stroke-width="1.51"/><path d="M-67,940L332,849L177,695Z" fill="#595959" stroke="#595959" stroke-width="1.51"/><path d="M-82,157L-157,200L14,462Z" fill="#323232" stroke="#323232" stroke-width="1.51"/><path d="M-278,-104L-157,200L-82,157Z" fill="#252525" stroke="#252525" stroke-width="1.51"/><path d="M219,-366L72,-364L165,-90Z" fill="#202020" stroke="#202020" stroke-width="1.51"/><path d="M1750,205L1962,262L1793,-42Z" fill="#7b7b7b" stroke="#7b7b7b" stroke-width="1.51"/><path d="M1954,507L1602,536L1627,609Z" fill="#8e8e8e" stroke="#8e8e8e" stroke-width="1.51"/><path d="M1974,611L1954,507L1627,609Z" fill="#949494" stroke="#949494" stroke-width="1.51"/><path d="M-157,200L-206,352L14,462Z" fill="#343434" stroke="#343434" stroke-width="1.51"/><path d="M1951,914L1974,611L1627,609Z" fill="#9c9c9c" stroke="#9c9c9c" stroke-width="1.51"/><path d="M1374,1212L1602,1180L1600,973Z" fill="#a7a7a7" stroke="#a7a7a7" stroke-width="1.51"/><path d="M1548,1531L1602,1180L1374,1212Z" fill="#b2b2b2" stroke="#b2b2b2" stroke-width="1.51"/><path d="M1954,507L1974,611L1962,262Z" fill="#8d8d8d" stroke="#8d8d8d" stroke-width="1.51"/><path d="M1951,914L1627,609L1600,973Z" fill="#9f9f9f" stroke="#9f9f9f" stroke-width="1.51"/><path d="M1032,1337L1237,1402L1285,1208Z" fill="#a2a2a2" stroke="#a2a2a2" stroke-width="1.51"/><path d="M635,1500L1237,1402L1032,1337Z" fill="#989898" stroke="#989898" stroke-width="1.51"/><path d="M-226,716L-67,940L-93,621Z" fill="#494949" stroke="#494949" stroke-width="1.51"/><path d="M-93,621L-67,940L177,695Z" fill="#4e4e4e" stroke="#4e4e4e" stroke-width="1.51"/><path d="M1854,-258L1797,-339L1510,-184Z" fill="#606060" stroke="#606060" stroke-width="1.51"/><path d="M1510,-184L1797,-339L1170,-289Z" fill="#555555" stroke="#555555" stroke-width="1.51"/><path d="M1170,-289L1797,-339L475,-360Z" fill="#444444" stroke="#444444" stroke-width="1.51"/><path d="M475,-360L1797,-339L219,-366Z" fill="#363636" stroke="#363636" stroke-width="1.51"/><path d="M1854,-258L1510,-184L1793,-42Z" fill="#656565" stroke="#656565" stroke-width="1.51"/><path d="M1991,-88L1854,-258L1793,-42Z" fill="#6b6b6b" stroke="#6b6b6b" stroke-width="1.51"/><path d="M-206,352L-226,716L-93,621Z" fill="#3d3d3d" stroke="#3d3d3d" stroke-width="1.51"/><path d="M1854,-258L1991,-88L1797,-339Z" fill="#666666" stroke="#666666" stroke-width="1.51"/><path d="M1962,262L1991,-88L1793,-42Z" fill="#757575" stroke="#757575" stroke-width="1.51"/><path d="M1974,611L1991,-88L1962,262Z" fill="#828282" stroke="#828282" stroke-width="1.51"/><path d="M409,1439L635,1500L418,1174Z" fill="#828282" stroke="#828282" stroke-width="1.51"/><path d="M409,1439L418,1174L288,1167Z" fill="#7a7a7a" stroke="#7a7a7a" stroke-width="1.51"/><path d="M177,1368L409,1439L288,1167Z" fill="#797979" stroke="#797979" stroke-width="1.51"/><path d="M1902,1131L1951,914L1600,973Z" fill="#aeaeae" stroke="#aeaeae" stroke-width="1.51"/><path d="M-157,200L-278,-104L-206,352Z" fill="#272727" stroke="#272727" stroke-width="1.51"/><path d="M-206,352L-278,-104L-226,716Z" fill="#2e2e2e" stroke="#2e2e2e" stroke-width="1.51"/><path d="M72,-364L-206,-247L165,-90Z" fill="#1d1d1d" stroke="#1d1d1d" stroke-width="1.51"/><path d="M-206,-247L-278,-104L70,55Z" fill="#1e1e1e" stroke="#1e1e1e" stroke-width="1.51"/><path d="M-234,923L-44,1168L-67,940Z" fill="#575757" stroke="#575757" stroke-width="1.51"/><path d="M-67,940L-44,1168L288,1167Z" fill="#636363" stroke="#636363" stroke-width="1.51"/><path d="M-44,1168L177,1368L288,1167Z" fill="#6e6e6e" stroke="#6e6e6e" stroke-width="1.51"/><path d="M-226,716L-234,923L-67,940Z" fill="#4d4d4d" stroke="#4d4d4d" stroke-width="1.51"/><path d="M-278,-104L-234,923L-226,716Z" fill="#383838" stroke="#383838" stroke-width="1.51"/><path d="M1602,1180L1902,1131L1600,973Z" fill="#aeaeae" stroke="#aeaeae" stroke-width="1.51"/><path d="M1908,1427L1902,1131L1602,1180Z" fill="#bcbcbc" stroke="#bcbcbc" stroke-width="1.51"/><path d="M635,1500L1548,1531L1237,1402Z" fill="#a0a0a0" stroke="#a0a0a0" stroke-width="1.51"/><path d="M1237,1402L1548,1531L1374,1212Z" fill="#acacac" stroke="#acacac" stroke-width="1.51"/><path d="M1548,1531L1601,1524L1602,1180Z" fill="#b5b5b5" stroke="#b5b5b5" stroke-width="1.51"/><path d="M-278,-104L-221,1229L-234,923Z" fill="#404040" stroke="#404040" stroke-width="1.51"/><path d="M-234,923L-221,1229L-44,1168Z" fill="#5a5a5a" stroke="#5a5a5a" stroke-width="1.51"/><path d="M-44,1168L-44,1511L177,1368Z" fill="#6e6e6e" stroke="#6e6e6e" stroke-width="1.51"/><path d="M1601,1524L1908,1427L1602,1180Z" fill="#bbbbbb" stroke="#bbbbbb" stroke-width="1.51"/><path d="M1902,1131L1908,1427L1951,914Z" fill="#b7b7b7" stroke="#b7b7b7" stroke-width="1.51"/><path d="M-210,1412L-44,1511L-44,1168Z" fill="#686868" stroke="#686868" stroke-width="1.51"/><path d="M177,1368L-44,1511L409,1439Z" fill="#747474" stroke="#747474" stroke-width="1.51"/><path d="M409,1439L-44,1511L635,1500Z" fill="#7b7b7b" stroke="#7b7b7b" stroke-width="1.51"/><path d="M635,1500L-44,1511L1548,1531Z" fill="#8c8c8c" stroke="#8c8c8c" stroke-width="1.51"/><path d="M-221,1229L-210,1412L-44,1168Z" fill="#636363" stroke="#636363" stroke-width="1.51"/></svg>