<svg xmlns="http://www.w3.org/2000/svg" width="500" height="500"><path d="M229,276L236,324L316,307Z" fill="#636363" stroke="#636363" stroke-width="1.51"/><path d="M316,307L330,278L229,276Z" fill="#656565" stroke="#656565" stroke-width="1.51"/><path d="M330,278L220,189L229,276Z" fill="#5c5c5c" stroke="#5c5c5c" stroke-width="1.51"/><path d="M236,324L339,391L316,307Z" fill="#6d6d6d" stroke="#6d6d6d" stroke-width="1.51"/><path d="M316,307L443,348L330,278Z" fill="#717171" stroke="#717171" stroke-width="1.51"/><path d="M229,276L166,357L236,324Z" fill="#5f5f5f" stroke="#5f5f5f" stroke-width="1.51"/><path d="M236,324L263,438L339,391Z" fill="#707070" stroke="#707070" stroke-width="1.51"/><path d="M142,253L166,357L229,276Z" fill="#595959" stroke="#595959" stroke-width="1.51"/><path d="M330,278L321,163L220,189Z" fill="#5c5c5c" stroke="#5c5c5c" stroke-width="1.51"/><path d="M443,348L387,223L330,278Z" fill="#717171" stroke="#717171" stroke-width="1.51"/><path d="M220,189L142,253L229,276Z" fill="#545454" stroke="#545454" stroke-width="1.51"/><path d="M387,223L321,163L330,278Z" fill="#646464" stroke="#646464" stroke-width="1.51"/><path d="M166,357L263,438L236,324Z" fill="#686868" stroke="#686868" stroke-width="1.51"/><path d="M166,357L179,436L263,438Z" fill="#6a6a6a" stroke="#6a6a6a" stroke-width="1.51"/><path d="M169,473L179,436L80,393Z" fill="#656565" stroke="#656565" stroke-width="1.51"/><path d="M142,253L61,313L166,357Z" fill="#545454" stroke="#545454" stroke-width="1.51"/><path d="M145,161L100,244L142,253Z" fill="#494949" stroke="#494949" stroke-width="1.51"/><path d="M339,391L443,348L316,307Z" fill="#777777" stroke="#777777" stroke-width="1.51"/><path d="M422,400L443,348L339,391Z" fill="#7f7f7f" stroke="#7f7f7f" stroke-width="1.51"/><path d="M220,189L145,161L142,253Z" fill="#4c4c4c" stroke="#4c4c4c" stroke-width="1.51"/><path d="M167,94L145,161L220,189Z" fill="#464646" stroke="#464646" stroke-width="1.51"/><path d="M343,483L422,400L339,391Z" fill="#818181" stroke="#818181" stroke-width="1.51"/><path d="M321,163L265,99L220,189Z" fill="#525252" stroke="#525252" stroke-width="1.51"/><path d="M358,48L265,99L321,163Z" fill="#525252" stroke="#525252" stroke-width="1.51"/><path d="M479,305L471,279L443,348Z" fill="#7f7f7f" stroke="#7f7f7f" stroke-width="1.51"/><path d="M443,348L471,279L387,223Z" fill="#777777" stroke="#777777" stroke-width="1.51"/><path d="M387,223L439,115L321,163Z" fill="#626262" stroke="#626262" stroke-width="1.51"/><path d="M263,438L343,483L339,391Z" fill="#7c7c7c" stroke="#7c7c7c" stroke-width="1.51"/><path d="M248,504L343,483L263,438Z" fill="#7d7d7d" stroke="#7d7d7d" stroke-width="1.51"/><path d="M179,436L248,504L263,438Z" fill="#747474" stroke="#747474" stroke-width="1.51"/><path d="M80,393L179,436L166,357Z" fill="#616161" stroke="#616161" stroke-width="1.51"/><path d="M575,401L479,305L443,348Z" fill="#888888" stroke="#888888" stroke-width="1.51"/><path d="M169,473L248,504L179,436Z" fill="#717171" stroke="#717171" stroke-width="1.51"/><path d="M100,244L61,313L142,253Z" fill="#4d4d4d" stroke="#4d4d4d" stroke-width="1.51"/><path d="M-16,329L61,313L-24,250Z" fill="#454545" stroke="#454545" stroke-width="1.51"/><path d="M61,313L80,393L166,357Z" fill="#575757" stroke="#575757" stroke-width="1.51"/><path d="M522,164L454,172L471,279Z" fill="#747474" stroke="#747474" stroke-width="1.51"/><path d="M471,279L454,172L387,223Z" fill="#707070" stroke="#707070" stroke-width="1.51"/><path d="M145,161L115,133L100,244Z" fill="#444444" stroke="#444444" stroke-width="1.51"/><path d="M167,94L115,133L145,161Z" fill="#404040" stroke="#404040" stroke-width="1.51"/><path d="M265,99L167,94L220,189Z" fill="#494949" stroke="#494949" stroke-width="1.51"/><path d="M422,400L470,431L443,348Z" fill="#878787" stroke="#878787" stroke-width="1.51"/><path d="M343,483L404,494L422,400Z" fill="#888888" stroke="#888888" stroke-width="1.51"/><path d="M392,599L404,494L343,483Z" fill="#909090" stroke="#909090" stroke-width="1.51"/><path d="M404,494L470,431L422,400Z" fill="#8b8b8b" stroke="#8b8b8b" stroke-width="1.51"/><path d="M454,172L439,115L387,223Z" fill="#686868" stroke="#686868" stroke-width="1.51"/><path d="M265,99L242,6L167,94Z" fill="#434343" stroke="#434343" stroke-width="1.51"/><path d="M439,115L358,48L321,163Z" fill="#595959" stroke="#595959" stroke-width="1.51"/><path d="M248,504L276,574L343,483Z" fill="#838383" stroke="#838383" stroke-width="1.51"/><path d="M174,557L276,574L248,504Z" fill="#7f7f7f" stroke="#7f7f7f" stroke-width="1.51"/><path d="M174,557L248,504L169,473Z" fill="#767676" stroke="#767676" stroke-width="1.51"/><path d="M48,490L174,557L169,473Z" fill="#6d6d6d" stroke="#6d6d6d" stroke-width="1.51"/><path d="M429,-15L370,-12L358,48Z" fill="#4f4f4f" stroke="#4f4f4f" stroke-width="1.51"/><path d="M454,172L522,164L439,115Z" fill="#6b6b6b" stroke="#6b6b6b" stroke-width="1.51"/><path d="M600,221L522,164L471,279Z" fill="#7c7c7c" stroke="#7c7c7c" stroke-width="1.51"/><path d="M592,326L471,279L479,305Z" fill="#848484" stroke="#848484" stroke-width="1.51"/><path d="M470,431L575,401L443,348Z" fill="#8d8d8d" stroke="#8d8d8d" stroke-width="1.51"/><path d="M404,494L471,503L470,431Z" fill="#929292" stroke="#929292" stroke-width="1.51"/><path d="M392,599L471,503L404,494Z" fill="#969696" stroke="#969696" stroke-width="1.51"/><path d="M80,393L48,490L169,473Z" fill="#626262" stroke="#626262" stroke-width="1.51"/><path d="M61,313L-16,329L80,393Z" fill="#4f4f4f" stroke="#4f4f4f" stroke-width="1.51"/><path d="M-24,250L61,313L100,244Z" fill="#464646" stroke="#464646" stroke-width="1.51"/><path d="M358,48L242,6L265,99Z" fill="#494949" stroke="#494949" stroke-width="1.51"/><path d="M167,94L129,30L115,133Z" fill="#3b3b3b" stroke="#3b3b3b" stroke-width="1.51"/><path d="M-16,448L48,490L80,393Z" fill="#5a5a5a" stroke="#5a5a5a" stroke-width="1.51"/><path d="M-33,139L-24,250L100,244Z" fill="#3b3b3b" stroke="#3b3b3b" stroke-width="1.51"/><path d="M-33,139L100,244L115,133Z" fill="#3c3c3c" stroke="#3c3c3c" stroke-width="1.51"/><path d="M242,6L129,30L167,94Z" fill="#3b3b3b" stroke="#3b3b3b" stroke-width="1.51"/><path d="M129,30L61,80L115,133Z" fill="#363636" stroke="#363636" stroke-width="1.51"/><path d="M577,504L575,401L470,431Z" fill="#9b9b9b" stroke="#9b9b9b" stroke-width="1.51"/><path d="M429,-15L358,48L439,115Z" fill="#575757" stroke="#575757" stroke-width="1.51"/><path d="M358,48L370,-12L242,6Z" fill="#484848" stroke="#484848" stroke-width="1.51"/><path d="M575,401L592,326L479,305Z" fill="#8e8e8e" stroke="#8e8e8e" stroke-width="1.51"/><path d="M-16,329L-16,448L80,393Z" fill="#505050" stroke="#505050" stroke-width="1.51"/><path d="M-77,435L-16,448L-16,329Z" fill="#4c4c4c" stroke="#4c4c4c" stroke-width="1.51"/><path d="M276,574L392,599L343,483Z" fill="#8e8e8e" stroke="#8e8e8e" stroke-width="1.51"/><path d="M471,503L577,504L470,431Z" fill="#9a9a9a" stroke="#9a9a9a" stroke-width="1.51"/><path d="M317,620L392,599L276,574Z" fill="#929292" stroke="#929292" stroke-width="1.51"/><path d="M174,557L317,620L276,574Z" fill="#878787" stroke="#878787" stroke-width="1.51"/><path d="M-16,448L-9,476L48,490Z" fill="#595959" stroke="#595959" stroke-width="1.51"/><path d="M48,490L102,590L174,557Z" fill="#6f6f6f" stroke="#6f6f6f" stroke-width="1.51"/><path d="M592,326L600,221L471,279Z" fill="#868686" stroke="#868686" stroke-width="1.51"/><path d="M522,164L537,79L439,115Z" fill="#6b6b6b" stroke="#6b6b6b" stroke-width="1.51"/><path d="M87,-9L5,84L61,80Z" fill="#2e2e2e" stroke="#2e2e2e" stroke-width="1.51"/><path d="M61,80L-33,139L115,133Z" fill="#343434" stroke="#343434" stroke-width="1.51"/><path d="M600,221L593,185L522,164Z" fill="#7d7d7d" stroke="#7d7d7d" stroke-width="1.51"/><path d="M174,557L102,590L317,620Z" fill="#808080" stroke="#808080" stroke-width="1.51"/><path d="M-28,572L102,590L48,490Z" fill="#676767" stroke="#676767" stroke-width="1.51"/><path d="M5,84L-33,139L61,80Z" fill="#2f2f2f" stroke="#2f2f2f" stroke-width="1.51"/><path d="M-24,250L-79,257L-16,329Z" fill="#3d3d3d" stroke="#3d3d3d" stroke-width="1.51"/><path d="M596,99L537,79L522,164Z" fill="#717171" stroke="#717171" stroke-width="1.51"/><path d="M537,79L429,-15L439,115Z" fill="#5f5f5f" stroke="#5f5f5f" stroke-width="1.51"/><path d="M-33,139L-79,257L-24,250Z" fill="#353535" stroke="#353535" stroke-width="1.51"/><path d="M-16,448L-73,499L-9,476Z" fill="#555555" stroke="#555555" stroke-width="1.51"/><path d="M-79,257L-81,329L-16,329Z" fill="#3e3e3e" stroke="#3e3e3e" stroke-width="1.51"/><path d="M129,30L87,-9L61,80Z" fill="#303030" stroke="#303030" stroke-width="1.51"/><path d="M134,-77L87,-9L129,30Z" fill="#2d2d2d" stroke="#2d2d2d" stroke-width="1.51"/><path d="M134,-77L129,30L242,6Z" fill="#333333" stroke="#333333" stroke-width="1.51"/><path d="M268,-66L242,6L370,-12Z" fill="#414141" stroke="#414141" stroke-width="1.51"/><path d="M354,-84L268,-66L370,-12Z" fill="#414141" stroke="#414141" stroke-width="1.51"/><path d="M575,401L577,504L592,326Z" fill="#9c9c9c" stroke="#9c9c9c" stroke-width="1.51"/><path d="M471,623L577,504L471,503Z" fill="#a3a3a3" stroke="#a3a3a3" stroke-width="1.51"/><path d="M-81,329L-77,435L-16,329Z" fill="#454545" stroke="#454545" stroke-width="1.51"/><path d="M-9,476L-28,572L48,490Z" fill="#5e5e5e" stroke="#5e5e5e" stroke-width="1.51"/><path d="M600,221L596,99L593,185Z" fill="#7d7d7d" stroke="#7d7d7d" stroke-width="1.51"/><path d="M593,185L596,99L522,164Z" fill="#787878" stroke="#787878" stroke-width="1.51"/><path d="M537,-55L446,-82L429,-15Z" fill="#525252" stroke="#525252" stroke-width="1.51"/><path d="M-55,78L-33,139L5,84Z" fill="#2b2b2b" stroke="#2b2b2b" stroke-width="1.51"/><path d="M-55,78L-72,131L-33,139Z" fill="#292929" stroke="#292929" stroke-width="1.51"/><path d="M-33,139L-72,131L-79,257Z" fill="#2f2f2f" stroke="#2f2f2f" stroke-width="1.51"/><path d="M317,620L471,623L392,599Z" fill="#9d9d9d" stroke="#9d9d9d" stroke-width="1.51"/><path d="M392,599L471,623L471,503Z" fill="#9f9f9f" stroke="#9f9f9f" stroke-width="1.51"/><path d="M446,-82L354,-84L429,-15Z" fill="#494949" stroke="#494949" stroke-width="1.51"/><path d="M429,-15L354,-84L370,-12Z" fill="#4a4a4a" stroke="#4a4a4a" stroke-width="1.51"/><path d="M-29,-22L-55,78L5,84Z" fill="#252525" stroke="#252525" stroke-width="1.51"/><path d="M87,-9L-29,-22L5,84Z" fill="#262626" stroke="#262626" stroke-width="1.51"/><path d="M268,-66L134,-77L242,6Z" fill="#353535" stroke="#353535" stroke-width="1.51"/><path d="M354,-84L134,-77L268,-66Z" fill="#363636" stroke="#363636" stroke-width="1.51"/><path d="M-77,435L-73,499L-16,448Z" fill="#505050" stroke="#505050" stroke-width="1.51"/><path d="M102,590L-28,572L317,620Z" fill="#787878" stroke="#787878" stroke-width="1.51"/><path d="M-73,499L-28,572L-9,476Z" fill="#595959" stroke="#595959" stroke-width="1.51"/><path d="M539,-24L429,-15L537,79Z" fill="#5e5e5e" stroke="#5e5e5e" stroke-width="1.51"/><path d="M606,-22L539,-24L537,79Z" fill="#656565" stroke="#656565" stroke-width="1.51"/><path d="M-73,499L-60,562L-28,572Z" fill="#5b5b5b" stroke="#5b5b5b" stroke-width="1.51"/><path d="M46,-106L24,-58L87,-9Z" fill="#222222" stroke="#222222" stroke-width="1.51"/><path d="M24,-58L-29,-22L87,-9Z" fill="#222222" stroke="#222222" stroke-width="1.51"/><path d="M-55,78L-97,-28L-72,131Z" fill="#212121" stroke="#212121" stroke-width="1.51"/><path d="M606,-22L537,-55L539,-24Z" fill="#5f5f5f" stroke="#5f5f5f" stroke-width="1.51"/><path d="M539,-24L537,-55L429,-15Z" fill="#585858" stroke="#585858" stroke-width="1.51"/><path d="M-72,-77L-97,-28L-29,-22Z" fill="#181818" stroke="#181818" stroke-width="1.51"/><path d="M134,-77L46,-106L87,-9Z" fill="#252525" stroke="#252525" stroke-width="1.51"/><path d="M354,-84L46,-106L134,-77Z" fill="#2c2c2c" stroke="#2c2c2c" stroke-width="1.51"/><path d="M446,-82L46,-106L354,-84Z" fill="#383838" stroke="#383838" stroke-width="1.51"/><path d="M596,99L606,-22L537,79Z" fill="#6c6c6c" stroke="#6c6c6c" stroke-width="1.51"/><path d="M600,221L606,-22L596,99Z" fill="#757575" stroke="#757575" stroke-width="1.51"/><path d="M606,-22L558,-81L537,-55Z" fill="#5e5e5e" stroke="#5e5e5e" stroke-width="1.51"/><path d="M537,-55L558,-81L446,-82Z" fill="#555555" stroke="#555555" stroke-width="1.51"/><path d="M446,-82L558,-81L46,-106Z" fill="#3f3f3f" stroke="#3f3f3f" stroke-width="1.51"/><path d="M471,623L613,622L577,504Z" fill="#afafaf" stroke="#afafaf" stroke-width="1.51"/><path d="M577,504L613,622L592,326Z" fill="#a7a7a7" stroke="#a7a7a7" stroke-width="1.51"/><path d="M592,326L613,622L600,221Z" fill="#9b9b9b" stroke="#9b9b9b" stroke-width="1.51"/><path d="M600,221L613,622L606,-22Z" fill="#8d8d8d" stroke="#8d8d8d" stroke-width="1.51"/><path d="M-72,-77L-29,-22L24,-58Z" fill="#1a1a1a" stroke="#1a1a1a" stroke-width="1.51"/><path d="M-29,-22L-97,-28L-55,78Z" fill="#1d1d1d" stroke="#1d1d1d" stroke-width="1.51"/><path d="M-72,131L-97,-28L-79,257Z" fill="#272727" stroke="#272727" stroke-width="1.51"/><path d="M-79,257L-97,-28L-81,329Z" fill="#2d2d2d" stroke="#2d2d2d" stroke-width="1.51"/><path d="M-81,329L-97,-28L-77,435Z" fill="#343434" stroke="#343434" stroke-width="1.51"/><path d="M46,-106L-72,-77L24,-58Z" fill="#1a1a1a" stroke="#1a1a1a" stroke-width="1.51"/></svg>