<svg xmlns="http://www.w3.org/2000/svg" width="540" height="540"><path d="M288,293L243,296L287,336Z" fill="#8d8d8d" stroke="#8d8d8d" stroke-width="1.51"/><path d="M243,296L250,339L287,336Z" fill="#8d8d8d" stroke="#8d8d8d" stroke-width="1.51"/><path d="M243,296L200,334L250,339Z" fill="#939393" stroke="#939393" stroke-width="1.51"/><path d="M201,252L205,296L243,296Z" fill="#9f9f9f" stroke="#9f9f9f" stroke-width="1.51"/><path d="M250,339L288,379L287,336Z" fill="#848484" stroke="#848484" stroke-width="1.51"/><path d="M202,374L246,379L250,339Z" fill="#8b8b8b" stroke="#8b8b8b" stroke-width="1.51"/><path d="M246,379L288,379L250,339Z" fill="#848484" stroke="#848484" stroke-width="1.51"/><path d="M287,336L336,336L288,293Z" fill="#848484" stroke="#848484" stroke-width="1.51"/><path d="M288,293L248,247L243,296Z" fill="#969696" stroke="#969696" stroke-width="1.51"/><path d="M205,296L200,334L243,296Z" fill="#9a9a9a" stroke="#9a9a9a" stroke-width="1.51"/><path d="M335,378L336,336L287,336Z" fill="#7c7c7c" stroke="#7c7c7c" stroke-width="1.51"/><path d="M288,293L293,244L248,247Z" fill="#969696" stroke="#969696" stroke-width="1.51"/><path d="M336,336L338,292L288,293Z" fill="#848484" stroke="#848484" stroke-width="1.51"/><path d="M339,252L293,244L288,293Z" fill="#909090" stroke="#909090" stroke-width="1.51"/><path d="M200,334L202,374L250,339Z" fill="#929292" stroke="#929292" stroke-width="1.51"/><path d="M248,247L201,252L243,296Z" fill="#a0a0a0" stroke="#a0a0a0" stroke-width="1.51"/><path d="M158,289L158,335L200,334Z" fill="#a1a1a1" stroke="#a1a1a1" stroke-width="1.51"/><path d="M288,379L335,378L287,336Z" fill="#7c7c7c" stroke="#7c7c7c" stroke-width="1.51"/><path d="M336,336L373,294L338,292Z" fill="#7e7e7e" stroke="#7e7e7e" stroke-width="1.51"/><path d="M338,292L339,252L288,293Z" fill="#898989" stroke="#898989" stroke-width="1.51"/><path d="M288,379L295,417L335,378Z" fill="#767676" stroke="#767676" stroke-width="1.51"/><path d="M250,425L295,417L288,379Z" fill="#787878" stroke="#787878" stroke-width="1.51"/><path d="M250,425L288,379L246,379Z" fill="#7e7e7e" stroke="#7e7e7e" stroke-width="1.51"/><path d="M338,292L373,294L339,252Z" fill="#848484" stroke="#848484" stroke-width="1.51"/><path d="M379,334L373,294L336,336Z" fill="#797979" stroke="#797979" stroke-width="1.51"/><path d="M200,334L161,374L202,374Z" fill="#959595" stroke="#959595" stroke-width="1.51"/><path d="M158,289L200,334L205,296Z" fill="#a1a1a1" stroke="#a1a1a1" stroke-width="1.51"/><path d="M201,252L158,289L205,296Z" fill="#a6a6a6" stroke="#a6a6a6" stroke-width="1.51"/><path d="M206,423L250,425L246,379Z" fill="#828282" stroke="#828282" stroke-width="1.51"/><path d="M206,423L246,379L202,374Z" fill="#888888" stroke="#888888" stroke-width="1.51"/><path d="M293,244L248,202L248,247Z" fill="#a0a0a0" stroke="#a0a0a0" stroke-width="1.51"/><path d="M248,247L203,202L201,252Z" fill="#aaaaaa" stroke="#aaaaaa" stroke-width="1.51"/><path d="M335,204L293,204L293,244Z" fill="#9a9a9a" stroke="#9a9a9a" stroke-width="1.51"/><path d="M293,204L248,202L293,244Z" fill="#a0a0a0" stroke="#a0a0a0" stroke-width="1.51"/><path d="M201,252L164,249L158,289Z" fill="#acacac" stroke="#acacac" stroke-width="1.51"/><path d="M375,378L379,334L336,336Z" fill="#737373" stroke="#737373" stroke-width="1.51"/><path d="M158,335L161,374L200,334Z" fill="#9a9a9a" stroke="#9a9a9a" stroke-width="1.51"/><path d="M203,202L164,249L201,252Z" fill="#b0b0b0" stroke="#b0b0b0" stroke-width="1.51"/><path d="M161,425L206,423L202,374Z" fill="#8b8b8b" stroke="#8b8b8b" stroke-width="1.51"/><path d="M295,417L339,416L335,378Z" fill="#707070" stroke="#707070" stroke-width="1.51"/><path d="M335,378L375,378L336,336Z" fill="#737373" stroke="#737373" stroke-width="1.51"/><path d="M337,459L339,416L295,417Z" fill="#6b6b6b" stroke="#6b6b6b" stroke-width="1.51"/><path d="M339,416L375,378L335,378Z" fill="#6e6e6e" stroke="#6e6e6e" stroke-width="1.51"/><path d="M248,202L203,202L248,247Z" fill="#aaaaaa" stroke="#aaaaaa" stroke-width="1.51"/><path d="M339,252L335,204L293,244Z" fill="#939393" stroke="#939393" stroke-width="1.51"/><path d="M293,204L246,166L248,202Z" fill="#a9a9a9" stroke="#a9a9a9" stroke-width="1.51"/><path d="M379,207L335,204L339,252Z" fill="#909090" stroke="#909090" stroke-width="1.51"/><path d="M373,294L382,245L339,252Z" fill="#848484" stroke="#848484" stroke-width="1.51"/><path d="M419,296L382,245L373,294Z" fill="#7c7c7c" stroke="#7c7c7c" stroke-width="1.51"/><path d="M158,335L122,331L161,374Z" fill="#9f9f9f" stroke="#9f9f9f" stroke-width="1.51"/><path d="M158,289L122,331L158,335Z" fill="#a5a5a5" stroke="#a5a5a5" stroke-width="1.51"/><path d="M117,292L122,331L158,289Z" fill="#aaaaaa" stroke="#aaaaaa" stroke-width="1.51"/><path d="M250,425L253,462L295,417Z" fill="#767676" stroke="#767676" stroke-width="1.51"/><path d="M208,464L253,462L250,425Z" fill="#787878" stroke="#787878" stroke-width="1.51"/><path d="M248,202L246,166L203,202Z" fill="#b0b0b0" stroke="#b0b0b0" stroke-width="1.51"/><path d="M290,157L246,166L293,204Z" fill="#a9a9a9" stroke="#a9a9a9" stroke-width="1.51"/><path d="M426,329L419,296L379,334Z" fill="#707070" stroke="#707070" stroke-width="1.51"/><path d="M339,416L376,418L375,378Z" fill="#686868" stroke="#686868" stroke-width="1.51"/><path d="M337,459L376,418L339,416Z" fill="#656565" stroke="#656565" stroke-width="1.51"/><path d="M123,253L117,292L158,289Z" fill="#b0b0b0" stroke="#b0b0b0" stroke-width="1.51"/><path d="M123,253L158,289L164,249Z" fill="#b0b0b0" stroke="#b0b0b0" stroke-width="1.51"/><path d="M379,334L419,296L373,294Z" fill="#767676" stroke="#767676" stroke-width="1.51"/><path d="M426,329L379,334L418,377Z" fill="#6b6b6b" stroke="#6b6b6b" stroke-width="1.51"/><path d="M206,423L208,464L250,425Z" fill="#7f7f7f" stroke="#7f7f7f" stroke-width="1.51"/><path d="M161,374L161,425L202,374Z" fill="#929292" stroke="#929292" stroke-width="1.51"/><path d="M121,382L161,425L161,374Z" fill="#959595" stroke="#959595" stroke-width="1.51"/><path d="M382,245L379,207L339,252Z" fill="#8a8a8a" stroke="#8a8a8a" stroke-width="1.51"/><path d="M332,161L290,157L293,204Z" fill="#a4a4a4" stroke="#a4a4a4" stroke-width="1.51"/><path d="M422,200L379,207L382,245Z" fill="#888888" stroke="#888888" stroke-width="1.51"/><path d="M203,202L159,202L164,249Z" fill="#b6b6b6" stroke="#b6b6b6" stroke-width="1.51"/><path d="M166,158L159,202L203,202Z" fill="#bdbdbd" stroke="#bdbdbd" stroke-width="1.51"/><path d="M253,462L296,467L295,417Z" fill="#6f6f6f" stroke="#6f6f6f" stroke-width="1.51"/><path d="M159,202L123,253L164,249Z" fill="#b7b7b7" stroke="#b7b7b7" stroke-width="1.51"/><path d="M332,161L293,204L335,204Z" fill="#9e9e9e" stroke="#9e9e9e" stroke-width="1.51"/><path d="M418,377L379,334L375,378Z" fill="#6b6b6b" stroke="#6b6b6b" stroke-width="1.51"/><path d="M122,331L121,382L161,374Z" fill="#9e9e9e" stroke="#9e9e9e" stroke-width="1.51"/><path d="M74,337L121,382L122,331Z" fill="#a5a5a5" stroke="#a5a5a5" stroke-width="1.51"/><path d="M296,467L337,459L295,417Z" fill="#6a6a6a" stroke="#6a6a6a" stroke-width="1.51"/><path d="M161,425L208,464L206,423Z" fill="#858585" stroke="#858585" stroke-width="1.51"/><path d="M253,462L291,504L296,467Z" fill="#676767" stroke="#676767" stroke-width="1.51"/><path d="M208,123L206,164L246,166Z" fill="#b9b9b9" stroke="#b9b9b9" stroke-width="1.51"/><path d="M246,166L206,164L203,202Z" fill="#b6b6b6" stroke="#b6b6b6" stroke-width="1.51"/><path d="M376,418L418,377L375,378Z" fill="#666666" stroke="#666666" stroke-width="1.51"/><path d="M418,423L418,377L376,418Z" fill="#606060" stroke="#606060" stroke-width="1.51"/><path d="M380,164L332,161L335,204Z" fill="#9a9a9a" stroke="#9a9a9a" stroke-width="1.51"/><path d="M462,290L424,252L419,296Z" fill="#737373" stroke="#737373" stroke-width="1.51"/><path d="M419,296L424,252L382,245Z" fill="#7b7b7b" stroke="#7b7b7b" stroke-width="1.51"/><path d="M337,459L375,463L376,418Z" fill="#606060" stroke="#606060" stroke-width="1.51"/><path d="M332,507L375,463L337,459Z" fill="#5a5a5a" stroke="#5a5a5a" stroke-width="1.51"/><path d="M206,164L166,158L203,202Z" fill="#bcbcbc" stroke="#bcbcbc" stroke-width="1.51"/><path d="M159,202L114,200L123,253Z" fill="#bdbdbd" stroke="#bdbdbd" stroke-width="1.51"/><path d="M208,123L166,158L206,164Z" fill="#c0c0c0" stroke="#c0c0c0" stroke-width="1.51"/><path d="M161,425L161,467L208,464Z" fill="#848484" stroke="#848484" stroke-width="1.51"/><path d="M245,505L291,504L253,462Z" fill="#676767" stroke="#676767" stroke-width="1.51"/><path d="M121,463L161,467L161,425Z" fill="#888888" stroke="#888888" stroke-width="1.51"/><path d="M121,382L115,422L161,425Z" fill="#949494" stroke="#949494" stroke-width="1.51"/><path d="M75,377L115,422L121,382Z" fill="#9c9c9c" stroke="#9c9c9c" stroke-width="1.51"/><path d="M418,377L460,338L426,329Z" fill="#656565" stroke="#656565" stroke-width="1.51"/><path d="M375,463L418,423L376,418Z" fill="#5d5d5d" stroke="#5d5d5d" stroke-width="1.51"/><path d="M288,120L252,121L290,157Z" fill="#b0b0b0" stroke="#b0b0b0" stroke-width="1.51"/><path d="M379,207L380,164L335,204Z" fill="#949494" stroke="#949494" stroke-width="1.51"/><path d="M422,200L380,164L379,207Z" fill="#8e8e8e" stroke="#8e8e8e" stroke-width="1.51"/><path d="M117,292L79,290L122,331Z" fill="#aeaeae" stroke="#aeaeae" stroke-width="1.51"/><path d="M123,253L79,290L117,292Z" fill="#b4b4b4" stroke="#b4b4b4" stroke-width="1.51"/><path d="M77,250L79,290L123,253Z" fill="#b9b9b9" stroke="#b9b9b9" stroke-width="1.51"/><path d="M120,164L114,200L159,202Z" fill="#c4c4c4" stroke="#c4c4c4" stroke-width="1.51"/><path d="M296,467L332,507L337,459Z" fill="#5f5f5f" stroke="#5f5f5f" stroke-width="1.51"/><path d="M245,505L253,462L208,464Z" fill="#707070" stroke="#707070" stroke-width="1.51"/><path d="M200,511L245,505L208,464Z" fill="#6f6f6f" stroke="#6f6f6f" stroke-width="1.51"/><path d="M424,252L422,200L382,245Z" fill="#828282" stroke="#828282" stroke-width="1.51"/><path d="M290,157L252,121L246,166Z" fill="#b0b0b0" stroke="#b0b0b0" stroke-width="1.51"/><path d="M288,120L290,157L331,119Z" fill="#aaaaaa" stroke="#aaaaaa" stroke-width="1.51"/><path d="M79,290L74,337L122,331Z" fill="#adadad" stroke="#adadad" stroke-width="1.51"/><path d="M426,329L462,290L419,296Z" fill="#6e6e6e" stroke="#6e6e6e" stroke-width="1.51"/><path d="M424,252L464,209L422,200Z" fill="#7f7f7f" stroke="#7f7f7f" stroke-width="1.51"/><path d="M460,382L460,338L418,377Z" fill="#5f5f5f" stroke="#5f5f5f" stroke-width="1.51"/><path d="M331,119L290,157L332,161Z" fill="#a5a5a5" stroke="#a5a5a5" stroke-width="1.51"/><path d="M460,338L462,290L426,329Z" fill="#676767" stroke="#676767" stroke-width="1.51"/><path d="M252,121L208,123L246,166Z" fill="#b8b8b8" stroke="#b8b8b8" stroke-width="1.51"/><path d="M166,158L120,164L159,202Z" fill="#c4c4c4" stroke="#c4c4c4" stroke-width="1.51"/><path d="M78,210L77,250L123,253Z" fill="#bfbfbf" stroke="#bfbfbf" stroke-width="1.51"/><path d="M79,290L31,296L74,337Z" fill="#b3b3b3" stroke="#b3b3b3" stroke-width="1.51"/><path d="M74,337L75,377L121,382Z" fill="#a3a3a3" stroke="#a3a3a3" stroke-width="1.51"/><path d="M375,463L423,461L418,423Z" fill="#575757" stroke="#575757" stroke-width="1.51"/><path d="M291,504L332,507L296,467Z" fill="#5d5d5d" stroke="#5d5d5d" stroke-width="1.51"/><path d="M289,553L332,507L291,504Z" fill="#565656" stroke="#565656" stroke-width="1.51"/><path d="M418,423L460,382L418,377Z" fill="#5d5d5d" stroke="#5d5d5d" stroke-width="1.51"/><path d="M460,338L504,330L462,290Z" fill="#606060" stroke="#606060" stroke-width="1.51"/><path d="M463,424L460,382L418,423Z" fill="#575757" stroke="#575757" stroke-width="1.51"/><path d="M379,120L332,161L380,164Z" fill="#9b9b9b" stroke="#9b9b9b" stroke-width="1.51"/><path d="M379,120L331,119L332,161Z" fill="#a1a1a1" stroke="#a1a1a1" stroke-width="1.51"/><path d="M462,290L462,250L424,252Z" fill="#727272" stroke="#727272" stroke-width="1.51"/><path d="M161,467L200,511L208,464Z" fill="#797979" stroke="#797979" stroke-width="1.51"/><path d="M245,505L249,551L291,504Z" fill="#5f5f5f" stroke="#5f5f5f" stroke-width="1.51"/><path d="M164,506L200,511L161,467Z" fill="#777777" stroke="#777777" stroke-width="1.51"/><path d="M72,463L121,463L115,422Z" fill="#8f8f8f" stroke="#8f8f8f" stroke-width="1.51"/><path d="M115,422L121,463L161,425Z" fill="#8f8f8f" stroke="#8f8f8f" stroke-width="1.51"/><path d="M158,120L120,164L166,158Z" fill="#c8c8c8" stroke="#c8c8c8" stroke-width="1.51"/><path d="M114,200L78,210L123,253Z" fill="#c1c1c1" stroke="#c1c1c1" stroke-width="1.51"/><path d="M423,508L423,461L375,463Z" fill="#4f4f4f" stroke="#4f4f4f" stroke-width="1.51"/><path d="M80,157L78,210L114,200Z" fill="#cbcbcb" stroke="#cbcbcb" stroke-width="1.51"/><path d="M36,247L31,296L79,290Z" fill="#bcbcbc" stroke="#bcbcbc" stroke-width="1.51"/><path d="M122,507L164,506L161,467Z" fill="#7c7c7c" stroke="#7c7c7c" stroke-width="1.51"/><path d="M422,200L425,163L380,164Z" fill="#8e8e8e" stroke="#8e8e8e" stroke-width="1.51"/><path d="M462,159L425,163L422,200Z" fill="#888888" stroke="#888888" stroke-width="1.51"/><path d="M75,377L74,424L115,422Z" fill="#9b9b9b" stroke="#9b9b9b" stroke-width="1.51"/><path d="M121,463L122,507L161,467Z" fill="#828282" stroke="#828282" stroke-width="1.51"/><path d="M35,419L74,424L75,377Z" fill="#9f9f9f" stroke="#9f9f9f" stroke-width="1.51"/><path d="M35,205L36,247L78,210Z" fill="#c9c9c9" stroke="#c9c9c9" stroke-width="1.51"/><path d="M208,123L158,120L166,158Z" fill="#c6c6c6" stroke="#c6c6c6" stroke-width="1.51"/><path d="M203,76L158,120L208,123Z" fill="#c8c8c8" stroke="#c8c8c8" stroke-width="1.51"/><path d="M247,74L208,123L252,121Z" fill="#bdbdbd" stroke="#bdbdbd" stroke-width="1.51"/><path d="M292,77L252,121L288,120Z" fill="#b4b4b4" stroke="#b4b4b4" stroke-width="1.51"/><path d="M504,253L462,250L462,290Z" fill="#6b6b6b" stroke="#6b6b6b" stroke-width="1.51"/><path d="M504,253L464,209L462,250Z" fill="#707070" stroke="#707070" stroke-width="1.51"/><path d="M462,250L464,209L424,252Z" fill="#787878" stroke="#787878" stroke-width="1.51"/><path d="M421,120L379,120L380,164Z" fill="#979797" stroke="#979797" stroke-width="1.51"/><path d="M332,507L375,511L375,463Z" fill="#535353" stroke="#535353" stroke-width="1.51"/><path d="M335,552L375,511L332,507Z" fill="#4e4e4e" stroke="#4e4e4e" stroke-width="1.51"/><path d="M506,381L504,330L460,338Z" fill="#575757" stroke="#575757" stroke-width="1.51"/><path d="M423,461L463,424L418,423Z" fill="#555555" stroke="#555555" stroke-width="1.51"/><path d="M468,468L463,424L423,461Z" fill="#4d4d4d" stroke="#4d4d4d" stroke-width="1.51"/><path d="M36,247L79,290L77,250Z" fill="#bdbdbd" stroke="#bdbdbd" stroke-width="1.51"/><path d="M74,337L31,335L75,377Z" fill="#ababab" stroke="#ababab" stroke-width="1.51"/><path d="M31,296L31,335L74,337Z" fill="#b2b2b2" stroke="#b2b2b2" stroke-width="1.51"/><path d="M205,546L249,551L245,505Z" fill="#606060" stroke="#606060" stroke-width="1.51"/><path d="M205,546L245,505L200,511Z" fill="#686868" stroke="#686868" stroke-width="1.51"/><path d="M506,381L460,338L460,382Z" fill="#575757" stroke="#575757" stroke-width="1.51"/><path d="M504,330L504,292L462,290Z" fill="#5f5f5f" stroke="#5f5f5f" stroke-width="1.51"/><path d="M331,119L292,77L288,120Z" fill="#aeaeae" stroke="#aeaeae" stroke-width="1.51"/><path d="M337,78L292,77L331,119Z" fill="#adadad" stroke="#adadad" stroke-width="1.51"/><path d="M249,551L289,553L291,504Z" fill="#585858" stroke="#585858" stroke-width="1.51"/><path d="M165,555L200,511L164,506Z" fill="#6f6f6f" stroke="#6f6f6f" stroke-width="1.51"/><path d="M165,555L205,546L200,511Z" fill="#696969" stroke="#696969" stroke-width="1.51"/><path d="M80,157L114,200L120,164Z" fill="#cbcbcb" stroke="#cbcbcb" stroke-width="1.51"/><path d="M78,210L36,247L77,250Z" fill="#c3c3c3" stroke="#c3c3c3" stroke-width="1.51"/><path d="M292,77L247,74L252,121Z" fill="#b9b9b9" stroke="#b9b9b9" stroke-width="1.51"/><path d="M72,463L122,507L121,463Z" fill="#878787" stroke="#878787" stroke-width="1.51"/><path d="M120,115L80,157L120,164Z" fill="#cfcfcf" stroke="#cfcfcf" stroke-width="1.51"/><path d="M120,115L120,164L158,120Z" fill="#cdcdcd" stroke="#cdcdcd" stroke-width="1.51"/><path d="M504,292L504,253L462,290Z" fill="#646464" stroke="#646464" stroke-width="1.51"/><path d="M460,121L421,120L425,163Z" fill="#8f8f8f" stroke="#8f8f8f" stroke-width="1.51"/><path d="M74,424L72,463L115,422Z" fill="#959595" stroke="#959595" stroke-width="1.51"/><path d="M35,419L72,463L74,424Z" fill="#999999" stroke="#999999" stroke-width="1.51"/><path d="M293,31L246,32L247,74Z" fill="#c0c0c0" stroke="#c0c0c0" stroke-width="1.51"/><path d="M379,120L337,78L331,119Z" fill="#a5a5a5" stroke="#a5a5a5" stroke-width="1.51"/><path d="M381,74L337,78L379,120Z" fill="#a3a3a3" stroke="#a3a3a3" stroke-width="1.51"/><path d="M247,74L203,76L208,123Z" fill="#c4c4c4" stroke="#c4c4c4" stroke-width="1.51"/><path d="M160,78L120,115L158,120Z" fill="#d0d0d0" stroke="#d0d0d0" stroke-width="1.51"/><path d="M289,553L335,552L332,507Z" fill="#4f4f4f" stroke="#4f4f4f" stroke-width="1.51"/><path d="M375,511L423,508L375,463Z" fill="#4e4e4e" stroke="#4e4e4e" stroke-width="1.51"/><path d="M425,163L421,120L380,164Z" fill="#929292" stroke="#929292" stroke-width="1.51"/><path d="M462,159L422,200L464,209Z" fill="#828282" stroke="#828282" stroke-width="1.51"/><path d="M31,335L28,381L75,377Z" fill="#aaaaaa" stroke="#aaaaaa" stroke-width="1.51"/><path d="M-7,383L28,381L31,335Z" fill="#acacac" stroke="#acacac" stroke-width="1.51"/><path d="M552,249L504,253L504,292Z" fill="#5e5e5e" stroke="#5e5e5e" stroke-width="1.51"/><path d="M552,249L512,203L504,253Z" fill="#636363" stroke="#636363" stroke-width="1.51"/><path d="M463,424L506,381L460,382Z" fill="#525252" stroke="#525252" stroke-width="1.51"/><path d="M382,549L423,508L375,511Z" fill="#454545" stroke="#454545" stroke-width="1.51"/><path d="M463,424L511,418L506,381Z" fill="#4b4b4b" stroke="#4b4b4b" stroke-width="1.51"/><path d="M505,161L462,159L464,209Z" fill="#7d7d7d" stroke="#7d7d7d" stroke-width="1.51"/><path d="M462,506L468,468L423,461Z" fill="#464646" stroke="#464646" stroke-width="1.51"/><path d="M28,381L35,419L75,377Z" fill="#a4a4a4" stroke="#a4a4a4" stroke-width="1.51"/><path d="M37,166L35,205L78,210Z" fill="#cfcfcf" stroke="#cfcfcf" stroke-width="1.51"/><path d="M-7,249L-11,291L31,296Z" fill="#c0c0c0" stroke="#c0c0c0" stroke-width="1.51"/><path d="M203,76L160,78L158,120Z" fill="#cdcdcd" stroke="#cdcdcd" stroke-width="1.51"/><path d="M122,507L165,555L164,506Z" fill="#737373" stroke="#737373" stroke-width="1.51"/><path d="M209,591L249,590L249,551Z" fill="#575757" stroke="#575757" stroke-width="1.51"/><path d="M249,551L249,590L289,553Z" fill="#555555" stroke="#555555" stroke-width="1.51"/><path d="M115,554L165,555L122,507Z" fill="#717171" stroke="#717171" stroke-width="1.51"/><path d="M423,508L462,506L423,461Z" fill="#464646" stroke="#464646" stroke-width="1.51"/><path d="M335,552L382,549L375,511Z" fill="#474747" stroke="#474747" stroke-width="1.51"/><path d="M505,464L511,418L463,424Z" fill="#464646" stroke="#464646" stroke-width="1.51"/><path d="M506,381L549,333L504,330Z" fill="#4e4e4e" stroke="#4e4e4e" stroke-width="1.51"/><path d="M417,77L381,74L379,120Z" fill="#9e9e9e" stroke="#9e9e9e" stroke-width="1.51"/><path d="M293,31L247,74L292,77Z" fill="#bababa" stroke="#bababa" stroke-width="1.51"/><path d="M417,77L379,120L421,120Z" fill="#999999" stroke="#999999" stroke-width="1.51"/><path d="M462,159L460,121L425,163Z" fill="#898989" stroke="#898989" stroke-width="1.51"/><path d="M504,253L512,203L464,209Z" fill="#6f6f6f" stroke="#6f6f6f" stroke-width="1.51"/><path d="M554,296L504,292L504,330Z" fill="#565656" stroke="#565656" stroke-width="1.51"/><path d="M118,79L75,122L120,115Z" fill="#d6d6d6" stroke="#d6d6d6" stroke-width="1.51"/><path d="M120,115L75,122L80,157Z" fill="#d4d4d4" stroke="#d4d4d4" stroke-width="1.51"/><path d="M80,157L37,166L78,210Z" fill="#d0d0d0" stroke="#d0d0d0" stroke-width="1.51"/><path d="M505,161L460,121L462,159Z" fill="#818181" stroke="#818181" stroke-width="1.51"/><path d="M75,122L37,166L80,157Z" fill="#d5d5d5" stroke="#d5d5d5" stroke-width="1.51"/><path d="M466,548L462,506L423,508Z" fill="#3b3b3b" stroke="#3b3b3b" stroke-width="1.51"/><path d="M468,468L505,464L463,424Z" fill="#464646" stroke="#464646" stroke-width="1.51"/><path d="M209,591L249,551L205,546Z" fill="#5d5d5d" stroke="#5d5d5d" stroke-width="1.51"/><path d="M289,553L334,591L335,552Z" fill="#4a4a4a" stroke="#4a4a4a" stroke-width="1.51"/><path d="M335,552L334,591L382,549Z" fill="#444444" stroke="#444444" stroke-width="1.51"/><path d="M33,510L71,510L72,463Z" fill="#878787" stroke="#878787" stroke-width="1.51"/><path d="M72,463L71,510L122,507Z" fill="#848484" stroke="#848484" stroke-width="1.51"/><path d="M157,34L160,78L203,76Z" fill="#d1d1d1" stroke="#d1d1d1" stroke-width="1.51"/><path d="M157,34L118,79L160,78Z" fill="#d5d5d5" stroke="#d5d5d5" stroke-width="1.51"/><path d="M160,78L118,79L120,115Z" fill="#d4d4d4" stroke="#d4d4d4" stroke-width="1.51"/><path d="M31,296L-15,331L31,335Z" fill="#b6b6b6" stroke="#b6b6b6" stroke-width="1.51"/><path d="M-10,424L30,463L35,419Z" fill="#9e9e9e" stroke="#9e9e9e" stroke-width="1.51"/><path d="M-7,249L31,296L36,247Z" fill="#c3c3c3" stroke="#c3c3c3" stroke-width="1.51"/><path d="M-7,249L36,247L35,205Z" fill="#c9c9c9" stroke="#c9c9c9" stroke-width="1.51"/><path d="M35,419L30,463L72,463Z" fill="#979797" stroke="#979797" stroke-width="1.51"/><path d="M-7,383L35,419L28,381Z" fill="#a6a6a6" stroke="#a6a6a6" stroke-width="1.51"/><path d="M460,121L417,77L421,120Z" fill="#939393" stroke="#939393" stroke-width="1.51"/><path d="M-14,207L-7,249L35,205Z" fill="#cecece" stroke="#cecece" stroke-width="1.51"/><path d="M504,505L505,464L468,468Z" fill="#3b3b3b" stroke="#3b3b3b" stroke-width="1.51"/><path d="M-51,294L-15,331L-11,291Z" fill="#bdbdbd" stroke="#bdbdbd" stroke-width="1.51"/><path d="M-11,291L-15,331L31,296Z" fill="#bbbbbb" stroke="#bbbbbb" stroke-width="1.51"/><path d="M-15,331L-7,383L31,335Z" fill="#b2b2b2" stroke="#b2b2b2" stroke-width="1.51"/><path d="M247,74L205,31L203,76Z" fill="#c8c8c8" stroke="#c8c8c8" stroke-width="1.51"/><path d="M293,31L292,77L331,32Z" fill="#b5b5b5" stroke="#b5b5b5" stroke-width="1.51"/><path d="M292,77L337,78L331,32Z" fill="#b1b1b1" stroke="#b1b1b1" stroke-width="1.51"/><path d="M555,375L506,381L511,418Z" fill="#454545" stroke="#454545" stroke-width="1.51"/><path d="M555,375L549,333L506,381Z" fill="#474747" stroke="#474747" stroke-width="1.51"/><path d="M162,589L209,591L165,555Z" fill="#636363" stroke="#636363" stroke-width="1.51"/><path d="M165,555L209,591L205,546Z" fill="#636363" stroke="#636363" stroke-width="1.51"/><path d="M460,121L469,72L417,77Z" fill="#929292" stroke="#929292" stroke-width="1.51"/><path d="M512,203L505,161L464,209Z" fill="#757575" stroke="#757575" stroke-width="1.51"/><path d="M546,161L505,161L512,203Z" fill="#707070" stroke="#707070" stroke-width="1.51"/><path d="M71,510L115,554L122,507Z" fill="#7a7a7a" stroke="#7a7a7a" stroke-width="1.51"/><path d="M331,32L337,78L376,35Z" fill="#acacac" stroke="#acacac" stroke-width="1.51"/><path d="M209,591L291,598L249,590Z" fill="#525252" stroke="#525252" stroke-width="1.51"/><path d="M249,590L291,598L289,553Z" fill="#4f4f4f" stroke="#4f4f4f" stroke-width="1.51"/><path d="M382,549L422,555L423,508Z" fill="#3f3f3f" stroke="#3f3f3f" stroke-width="1.51"/><path d="M291,598L334,591L289,553Z" fill="#4a4a4a" stroke="#4a4a4a" stroke-width="1.51"/><path d="M383,597L422,555L382,549Z" fill="#3c3c3c" stroke="#3c3c3c" stroke-width="1.51"/><path d="M462,506L504,505L468,468Z" fill="#3b3b3b" stroke="#3b3b3b" stroke-width="1.51"/><path d="M549,333L554,296L504,330Z" fill="#505050" stroke="#505050" stroke-width="1.51"/><path d="M376,35L337,78L381,74Z" fill="#a7a7a7" stroke="#a7a7a7" stroke-width="1.51"/><path d="M246,32L205,31L247,74Z" fill="#c7c7c7" stroke="#c7c7c7" stroke-width="1.51"/><path d="M202,-7L205,31L246,32Z" fill="#cdcdcd" stroke="#cdcdcd" stroke-width="1.51"/><path d="M554,296L552,249L504,292Z" fill="#575757" stroke="#575757" stroke-width="1.51"/><path d="M122,591L162,589L165,555Z" fill="#676767" stroke="#676767" stroke-width="1.51"/><path d="M209,591L122,591L291,598Z" fill="#5a5a5a" stroke="#5a5a5a" stroke-width="1.51"/><path d="M549,333L593,330L554,296Z" fill="#4a4a4a" stroke="#4a4a4a" stroke-width="1.51"/><path d="M554,425L555,375L511,418Z" fill="#3f3f3f" stroke="#3f3f3f" stroke-width="1.51"/><path d="M34,549L80,554L71,510Z" fill="#7b7b7b" stroke="#7b7b7b" stroke-width="1.51"/><path d="M-7,383L-10,424L35,419Z" fill="#a5a5a5" stroke="#a5a5a5" stroke-width="1.51"/><path d="M-56,425L-10,424L-7,383Z" fill="#a7a7a7" stroke="#a7a7a7" stroke-width="1.51"/><path d="M420,34L376,35L381,74Z" fill="#a3a3a3" stroke="#a3a3a3" stroke-width="1.51"/><path d="M420,34L381,74L417,77Z" fill="#9f9f9f" stroke="#9f9f9f" stroke-width="1.51"/><path d="M-6,160L-14,207L35,205Z" fill="#d5d5d5" stroke="#d5d5d5" stroke-width="1.51"/><path d="M-51,245L-51,294L-11,291Z" fill="#c4c4c4" stroke="#c4c4c4" stroke-width="1.51"/><path d="M-6,160L35,205L37,166Z" fill="#d6d6d6" stroke="#d6d6d6" stroke-width="1.51"/><path d="M34,114L37,166L75,122Z" fill="#d9d9d9" stroke="#d9d9d9" stroke-width="1.51"/><path d="M74,73L34,114L75,122Z" fill="#dddddd" stroke="#dddddd" stroke-width="1.51"/><path d="M205,31L157,34L203,76Z" fill="#d0d0d0" stroke="#d0d0d0" stroke-width="1.51"/><path d="M115,554L122,591L165,555Z" fill="#6b6b6b" stroke="#6b6b6b" stroke-width="1.51"/><path d="M71,510L80,554L115,554Z" fill="#777777" stroke="#777777" stroke-width="1.51"/><path d="M33,510L72,463L30,463Z" fill="#8e8e8e" stroke="#8e8e8e" stroke-width="1.51"/><path d="M505,464L554,425L511,418Z" fill="#3e3e3e" stroke="#3e3e3e" stroke-width="1.51"/><path d="M466,548L504,505L462,506Z" fill="#343434" stroke="#343434" stroke-width="1.51"/><path d="M-16,508L33,510L30,463Z" fill="#8d8d8d" stroke="#8d8d8d" stroke-width="1.51"/><path d="M594,290L552,249L554,296Z" fill="#515151" stroke="#515151" stroke-width="1.51"/><path d="M591,249L553,208L552,249Z" fill="#5a5a5a" stroke="#5a5a5a" stroke-width="1.51"/><path d="M552,249L553,208L512,203Z" fill="#636363" stroke="#636363" stroke-width="1.51"/><path d="M422,555L466,548L423,508Z" fill="#3a3a3a" stroke="#3a3a3a" stroke-width="1.51"/><path d="M334,591L383,597L382,549Z" fill="#3f3f3f" stroke="#3f3f3f" stroke-width="1.51"/><path d="M291,598L383,597L334,591Z" fill="#414141" stroke="#414141" stroke-width="1.51"/><path d="M74,73L75,122L118,79Z" fill="#dbdbdb" stroke="#dbdbdb" stroke-width="1.51"/><path d="M465,594L466,548L422,555Z" fill="#313131" stroke="#313131" stroke-width="1.51"/><path d="M552,467L554,425L505,464Z" fill="#373737" stroke="#373737" stroke-width="1.51"/><path d="M115,28L74,73L118,79Z" fill="#dddddd" stroke="#dddddd" stroke-width="1.51"/><path d="M547,118L507,115L505,161Z" fill="#777777" stroke="#777777" stroke-width="1.51"/><path d="M505,161L507,115L460,121Z" fill="#7f7f7f" stroke="#7f7f7f" stroke-width="1.51"/><path d="M80,590L122,591L115,554Z" fill="#6d6d6d" stroke="#6d6d6d" stroke-width="1.51"/><path d="M162,589L122,591L209,591Z" fill="#626262" stroke="#626262" stroke-width="1.51"/><path d="M34,114L-6,160L37,166Z" fill="#dbdbdb" stroke="#dbdbdb" stroke-width="1.51"/><path d="M507,115L469,72L460,121Z" fill="#878787" stroke="#878787" stroke-width="1.51"/><path d="M553,208L546,161L512,203Z" fill="#696969" stroke="#696969" stroke-width="1.51"/><path d="M-51,245L-7,249L-14,207Z" fill="#cdcdcd" stroke="#cdcdcd" stroke-width="1.51"/><path d="M-51,245L-11,291L-7,249Z" fill="#c7c7c7" stroke="#c7c7c7" stroke-width="1.51"/><path d="M-15,331L-53,339L-7,383Z" fill="#b3b3b3" stroke="#b3b3b3" stroke-width="1.51"/><path d="M469,72L420,34L417,77Z" fill="#999999" stroke="#999999" stroke-width="1.51"/><path d="M289,-12L293,31L332,-14Z" fill="#bcbcbc" stroke="#bcbcbc" stroke-width="1.51"/><path d="M289,-12L246,32L293,31Z" fill="#c0c0c0" stroke="#c0c0c0" stroke-width="1.51"/><path d="M-10,424L-16,464L30,463Z" fill="#9c9c9c" stroke="#9c9c9c" stroke-width="1.51"/><path d="M-56,425L-16,464L-10,424Z" fill="#a2a2a2" stroke="#a2a2a2" stroke-width="1.51"/><path d="M383,597L423,594L422,555Z" fill="#373737" stroke="#373737" stroke-width="1.51"/><path d="M-51,294L-53,339L-15,331Z" fill="#bbbbbb" stroke="#bbbbbb" stroke-width="1.51"/><path d="M504,505L552,467L505,464Z" fill="#343434" stroke="#343434" stroke-width="1.51"/><path d="M552,510L552,467L504,505Z" fill="#2d2d2d" stroke="#2d2d2d" stroke-width="1.51"/><path d="M506,548L504,505L466,548Z" fill="#2d2d2d" stroke="#2d2d2d" stroke-width="1.51"/><path d="M157,34L115,28L118,79Z" fill="#dadada" stroke="#dadada" stroke-width="1.51"/><path d="M74,73L30,73L34,114Z" fill="#e1e1e1" stroke="#e1e1e1" stroke-width="1.51"/><path d="M164,-10L115,28L157,34Z" fill="#dbdbdb" stroke="#dbdbdb" stroke-width="1.51"/><path d="M164,-10L157,34L205,31Z" fill="#d7d7d7" stroke="#d7d7d7" stroke-width="1.51"/><path d="M-51,294L-57,375L-53,339Z" fill="#b9b9b9" stroke="#b9b9b9" stroke-width="1.51"/><path d="M-56,207L-51,245L-14,207Z" fill="#d2d2d2" stroke="#d2d2d2" stroke-width="1.51"/><path d="M289,-12L247,-11L246,32Z" fill="#c5c5c5" stroke="#c5c5c5" stroke-width="1.51"/><path d="M293,31L331,32L332,-14Z" fill="#b7b7b7" stroke="#b7b7b7" stroke-width="1.51"/><path d="M590,374L593,330L549,333Z" fill="#424242" stroke="#424242" stroke-width="1.51"/><path d="M553,208L591,163L546,161Z" fill="#666666" stroke="#666666" stroke-width="1.51"/><path d="M590,374L549,333L555,375Z" fill="#434343" stroke="#434343" stroke-width="1.51"/><path d="M590,374L555,375L589,425Z" fill="#3a3a3a" stroke="#3a3a3a" stroke-width="1.51"/><path d="M332,-14L331,32L375,-13Z" fill="#b3b3b3" stroke="#b3b3b3" stroke-width="1.51"/><path d="M247,-11L202,-7L246,32Z" fill="#cbcbcb" stroke="#cbcbcb" stroke-width="1.51"/><path d="M593,330L594,290L554,296Z" fill="#494949" stroke="#494949" stroke-width="1.51"/><path d="M589,425L555,375L554,425Z" fill="#3a3a3a" stroke="#3a3a3a" stroke-width="1.51"/><path d="M-53,339L-57,375L-7,383Z" fill="#b1b1b1" stroke="#b1b1b1" stroke-width="1.51"/><path d="M-56,207L-57,375L-51,294Z" fill="#c3c3c3" stroke="#c3c3c3" stroke-width="1.51"/><path d="M594,290L591,249L552,249Z" fill="#525252" stroke="#525252" stroke-width="1.51"/><path d="M80,554L80,590L115,554Z" fill="#717171" stroke="#717171" stroke-width="1.51"/><path d="M33,510L34,549L71,510Z" fill="#818181" stroke="#818181" stroke-width="1.51"/><path d="M-8,555L34,549L33,510Z" fill="#808080" stroke="#808080" stroke-width="1.51"/><path d="M31,590L80,590L80,554Z" fill="#727272" stroke="#727272" stroke-width="1.51"/><path d="M122,591L-59,597L291,598Z" fill="#676767" stroke="#676767" stroke-width="1.51"/><path d="M289,-12L246,-49L247,-11Z" fill="#c7c7c7" stroke="#c7c7c7" stroke-width="1.51"/><path d="M375,-13L331,32L376,35Z" fill="#adadad" stroke="#adadad" stroke-width="1.51"/><path d="M465,594L506,548L466,548Z" fill="#2b2b2b" stroke="#2b2b2b" stroke-width="1.51"/><path d="M72,31L30,73L74,73Z" fill="#e3e3e3" stroke="#e3e3e3" stroke-width="1.51"/><path d="M34,114L-16,115L-6,160Z" fill="#dfdfdf" stroke="#dfdfdf" stroke-width="1.51"/><path d="M-52,163L-56,207L-14,207Z" fill="#d9d9d9" stroke="#d9d9d9" stroke-width="1.51"/><path d="M420,-8L375,-13L376,35Z" fill="#a9a9a9" stroke="#a9a9a9" stroke-width="1.51"/><path d="M469,72L462,28L420,34Z" fill="#979797" stroke="#979797" stroke-width="1.51"/><path d="M507,115L504,72L469,72Z" fill="#858585" stroke="#858585" stroke-width="1.51"/><path d="M548,76L504,72L507,115Z" fill="#7d7d7d" stroke="#7d7d7d" stroke-width="1.51"/><path d="M547,118L505,161L546,161Z" fill="#717171" stroke="#717171" stroke-width="1.51"/><path d="M205,-52L164,-10L202,-7Z" fill="#d8d8d8" stroke="#d8d8d8" stroke-width="1.51"/><path d="M202,-7L164,-10L205,31Z" fill="#d5d5d5" stroke="#d5d5d5" stroke-width="1.51"/><path d="M115,28L72,31L74,73Z" fill="#e1e1e1" stroke="#e1e1e1" stroke-width="1.51"/><path d="M205,-52L202,-7L247,-11Z" fill="#d1d1d1" stroke="#d1d1d1" stroke-width="1.51"/><path d="M-51,245L-56,207L-51,294Z" fill="#cccccc" stroke="#cccccc" stroke-width="1.51"/><path d="M-52,163L-14,207L-6,160Z" fill="#dadada" stroke="#dadada" stroke-width="1.51"/><path d="M594,463L554,425L552,467Z" fill="#313131" stroke="#313131" stroke-width="1.51"/><path d="M594,463L589,425L554,425Z" fill="#333333" stroke="#333333" stroke-width="1.51"/><path d="M590,374L594,463L593,330Z" fill="#383838" stroke="#383838" stroke-width="1.51"/><path d="M-16,464L-16,508L30,463Z" fill="#939393" stroke="#939393" stroke-width="1.51"/><path d="M-57,375L-56,425L-7,383Z" fill="#ababab" stroke="#ababab" stroke-width="1.51"/><path d="M591,119L547,118L546,161Z" fill="#6d6d6d" stroke="#6d6d6d" stroke-width="1.51"/><path d="M-50,467L-16,508L-16,464Z" fill="#959595" stroke="#959595" stroke-width="1.51"/><path d="M34,549L31,590L80,554Z" fill="#777777" stroke="#777777" stroke-width="1.51"/><path d="M423,594L465,594L422,555Z" fill="#323232" stroke="#323232" stroke-width="1.51"/><path d="M508,599L465,594L423,594Z" fill="#292929" stroke="#292929" stroke-width="1.51"/><path d="M71,-7L72,31L115,28Z" fill="#e5e5e5" stroke="#e5e5e5" stroke-width="1.51"/><path d="M420,-8L376,35L420,34Z" fill="#a4a4a4" stroke="#a4a4a4" stroke-width="1.51"/><path d="M-11,79L34,114L30,73Z" fill="#e4e4e4" stroke="#e4e4e4" stroke-width="1.51"/><path d="M-11,79L-16,115L34,114Z" fill="#e4e4e4" stroke="#e4e4e4" stroke-width="1.51"/><path d="M506,548L552,510L504,505Z" fill="#292929" stroke="#292929" stroke-width="1.51"/><path d="M545,554L552,510L506,548Z" fill="#222222" stroke="#222222" stroke-width="1.51"/><path d="M508,27L462,28L469,72Z" fill="#8e8e8e" stroke="#8e8e8e" stroke-width="1.51"/><path d="M591,249L597,204L553,208Z" fill="#5a5a5a" stroke="#5a5a5a" stroke-width="1.51"/><path d="M594,290L597,204L591,249Z" fill="#525252" stroke="#525252" stroke-width="1.51"/><path d="M594,463L597,204L594,290Z" fill="#444444" stroke="#444444" stroke-width="1.51"/><path d="M-56,425L-50,467L-16,464Z" fill="#9f9f9f" stroke="#9f9f9f" stroke-width="1.51"/><path d="M-16,115L-52,163L-6,160Z" fill="#dfdfdf" stroke="#dfdfdf" stroke-width="1.51"/><path d="M462,28L420,-8L420,34Z" fill="#9e9e9e" stroke="#9e9e9e" stroke-width="1.51"/><path d="M164,-10L113,-8L115,28Z" fill="#dfdfdf" stroke="#dfdfdf" stroke-width="1.51"/><path d="M547,118L548,76L507,115Z" fill="#777777" stroke="#777777" stroke-width="1.51"/><path d="M504,72L508,27L469,72Z" fill="#888888" stroke="#888888" stroke-width="1.51"/><path d="M597,204L591,163L553,208Z" fill="#5f5f5f" stroke="#5f5f5f" stroke-width="1.51"/><path d="M590,502L594,463L552,467Z" fill="#292929" stroke="#292929" stroke-width="1.51"/><path d="M589,425L594,463L590,374Z" fill="#333333" stroke="#333333" stroke-width="1.51"/><path d="M593,330L594,463L594,290Z" fill="#3d3d3d" stroke="#3d3d3d" stroke-width="1.51"/><path d="M-8,555L33,510L-16,508Z" fill="#858585" stroke="#858585" stroke-width="1.51"/><path d="M-8,555L31,590L34,549Z" fill="#7b7b7b" stroke="#7b7b7b" stroke-width="1.51"/><path d="M80,590L-59,597L122,591Z" fill="#717171" stroke="#717171" stroke-width="1.51"/><path d="M164,-10L157,-55L113,-8Z" fill="#e0e0e0" stroke="#e0e0e0" stroke-width="1.51"/><path d="M287,-56L246,-49L289,-12Z" fill="#c5c5c5" stroke="#c5c5c5" stroke-width="1.51"/><path d="M287,-56L289,-12L332,-14Z" fill="#bfbfbf" stroke="#bfbfbf" stroke-width="1.51"/><path d="M287,-56L332,-14L331,-59Z" fill="#bcbcbc" stroke="#bcbcbc" stroke-width="1.51"/><path d="M-16,115L-59,123L-52,163Z" fill="#e3e3e3" stroke="#e3e3e3" stroke-width="1.51"/><path d="M-8,27L-11,79L30,73Z" fill="#eaeaea" stroke="#eaeaea" stroke-width="1.51"/><path d="M29,32L30,73L72,31Z" fill="#e7e7e7" stroke="#e7e7e7" stroke-width="1.51"/><path d="M-55,555L-8,555L-16,508Z" fill="#838383" stroke="#838383" stroke-width="1.51"/><path d="M552,510L590,502L552,467Z" fill="#282828" stroke="#282828" stroke-width="1.51"/><path d="M508,599L545,554L506,548Z" fill="#212121" stroke="#212121" stroke-width="1.51"/><path d="M592,80L548,76L547,118Z" fill="#737373" stroke="#737373" stroke-width="1.51"/><path d="M462,28L467,-10L420,-8Z" fill="#9b9b9b" stroke="#9b9b9b" stroke-width="1.51"/><path d="M71,-7L29,32L72,31Z" fill="#e9e9e9" stroke="#e9e9e9" stroke-width="1.51"/><path d="M331,-59L332,-14L373,-51Z" fill="#b6b6b6" stroke="#b6b6b6" stroke-width="1.51"/><path d="M246,-49L205,-52L247,-11Z" fill="#cfcfcf" stroke="#cfcfcf" stroke-width="1.51"/><path d="M113,-8L71,-7L115,28Z" fill="#e4e4e4" stroke="#e4e4e4" stroke-width="1.51"/><path d="M287,-56L205,-52L246,-49Z" fill="#cdcdcd" stroke="#cdcdcd" stroke-width="1.51"/><path d="M465,594L508,599L506,548Z" fill="#252525" stroke="#252525" stroke-width="1.51"/><path d="M383,597L508,599L423,594Z" fill="#2f2f2f" stroke="#2f2f2f" stroke-width="1.51"/><path d="M291,598L508,599L383,597Z" fill="#363636" stroke="#363636" stroke-width="1.51"/><path d="M593,553L590,502L552,510Z" fill="#1e1e1e" stroke="#1e1e1e" stroke-width="1.51"/><path d="M593,553L552,510L545,554Z" fill="#1d1d1d" stroke="#1d1d1d" stroke-width="1.51"/><path d="M-50,467L-54,508L-16,508Z" fill="#919191" stroke="#919191" stroke-width="1.51"/><path d="M-56,425L-54,508L-50,467Z" fill="#9b9b9b" stroke="#9b9b9b" stroke-width="1.51"/><path d="M549,36L508,27L504,72Z" fill="#818181" stroke="#818181" stroke-width="1.51"/><path d="M71,-55L71,-7L113,-8Z" fill="#e9e9e9" stroke="#e9e9e9" stroke-width="1.51"/><path d="M-60,74L-59,123L-16,115Z" fill="#e8e8e8" stroke="#e8e8e8" stroke-width="1.51"/><path d="M-52,163L-59,123L-56,207Z" fill="#dfdfdf" stroke="#dfdfdf" stroke-width="1.51"/><path d="M-56,207L-59,123L-57,375Z" fill="#d0d0d0" stroke="#d0d0d0" stroke-width="1.51"/><path d="M-60,74L-16,115L-11,79Z" fill="#e9e9e9" stroke="#e9e9e9" stroke-width="1.51"/><path d="M548,76L549,36L504,72Z" fill="#7b7b7b" stroke="#7b7b7b" stroke-width="1.51"/><path d="M591,163L591,119L546,161Z" fill="#686868" stroke="#686868" stroke-width="1.51"/><path d="M597,204L591,119L591,163Z" fill="#626262" stroke="#626262" stroke-width="1.51"/><path d="M287,-56L157,-55L205,-52Z" fill="#d4d4d4" stroke="#d4d4d4" stroke-width="1.51"/><path d="M373,-51L332,-14L375,-13Z" fill="#b2b2b2" stroke="#b2b2b2" stroke-width="1.51"/><path d="M373,-51L375,-13L421,-52Z" fill="#adadad" stroke="#adadad" stroke-width="1.51"/><path d="M421,-52L375,-13L420,-8Z" fill="#a8a8a8" stroke="#a8a8a8" stroke-width="1.51"/><path d="M508,27L467,-10L462,28Z" fill="#919191" stroke="#919191" stroke-width="1.51"/><path d="M205,-52L157,-55L164,-10Z" fill="#dcdcdc" stroke="#dcdcdc" stroke-width="1.51"/><path d="M121,-59L157,-55L287,-56Z" fill="#dbdbdb" stroke="#dbdbdb" stroke-width="1.51"/><path d="M-55,555L-16,591L-8,555Z" fill="#7d7d7d" stroke="#7d7d7d" stroke-width="1.51"/><path d="M-8,555L-16,591L31,590Z" fill="#797979" stroke="#797979" stroke-width="1.51"/><path d="M31,590L-59,597L80,590Z" fill="#747474" stroke="#747474" stroke-width="1.51"/><path d="M592,80L549,36L548,76Z" fill="#757575" stroke="#757575" stroke-width="1.51"/><path d="M508,27L511,-7L467,-10Z" fill="#8e8e8e" stroke="#8e8e8e" stroke-width="1.51"/><path d="M469,-54L421,-52L467,-10Z" fill="#9f9f9f" stroke="#9f9f9f" stroke-width="1.51"/><path d="M467,-10L421,-52L420,-8Z" fill="#a2a2a2" stroke="#a2a2a2" stroke-width="1.51"/><path d="M373,-51L421,-52L331,-59Z" fill="#b1b1b1" stroke="#b1b1b1" stroke-width="1.51"/><path d="M29,32L-8,27L30,73Z" fill="#eaeaea" stroke="#eaeaea" stroke-width="1.51"/><path d="M31,-10L-8,27L29,32Z" fill="#eeeeee" stroke="#eeeeee" stroke-width="1.51"/><path d="M31,-10L29,32L71,-7Z" fill="#ececec" stroke="#ececec" stroke-width="1.51"/><path d="M508,599L548,596L545,554Z" fill="#1b1b1b" stroke="#1b1b1b" stroke-width="1.51"/><path d="M331,-59L121,-59L287,-56Z" fill="#cecece" stroke="#cecece" stroke-width="1.51"/><path d="M157,-55L121,-59L113,-8Z" fill="#e3e3e3" stroke="#e3e3e3" stroke-width="1.51"/><path d="M597,204L592,80L591,119Z" fill="#666666" stroke="#666666" stroke-width="1.51"/><path d="M591,119L592,80L547,118Z" fill="#6d6d6d" stroke="#6d6d6d" stroke-width="1.51"/><path d="M71,-55L31,-10L71,-7Z" fill="#ececec" stroke="#ececec" stroke-width="1.51"/><path d="M-54,508L-55,555L-16,508Z" fill="#898989" stroke="#898989" stroke-width="1.51"/><path d="M-59,597L-55,555L-54,508Z" fill="#838383" stroke="#838383" stroke-width="1.51"/><path d="M-59,597L-54,508L-56,425Z" fill="#8e8e8e" stroke="#8e8e8e" stroke-width="1.51"/><path d="M547,-11L508,27L549,36Z" fill="#818181" stroke="#818181" stroke-width="1.51"/><path d="M547,-11L511,-7L508,27Z" fill="#868686" stroke="#868686" stroke-width="1.51"/><path d="M590,502L593,553L594,463Z" fill="#202020" stroke="#202020" stroke-width="1.51"/><path d="M594,463L595,591L597,204Z" fill="#323232" stroke="#323232" stroke-width="1.51"/><path d="M595,591L593,553L545,554Z" fill="#161616" stroke="#161616" stroke-width="1.51"/><path d="M-59,123L-60,74L-57,375Z" fill="#dbdbdb" stroke="#dbdbdb" stroke-width="1.51"/><path d="M-59,35L-60,74L-11,79Z" fill="#ededed" stroke="#ededed" stroke-width="1.51"/><path d="M-59,35L-11,79L-8,27Z" fill="#eeeeee" stroke="#eeeeee" stroke-width="1.51"/><path d="M-55,-10L-59,35L-8,27Z" fill="#f3f3f3" stroke="#f3f3f3" stroke-width="1.51"/><path d="M121,-59L71,-55L113,-8Z" fill="#e8e8e8" stroke="#e8e8e8" stroke-width="1.51"/><path d="M511,-7L469,-54L467,-10Z" fill="#949494" stroke="#949494" stroke-width="1.51"/><path d="M421,-52L469,-54L331,-59Z" fill="#aaaaaa" stroke="#aaaaaa" stroke-width="1.51"/><path d="M509,-58L469,-54L511,-7Z" fill="#919191" stroke="#919191" stroke-width="1.51"/><path d="M-15,-15L-8,27L31,-10Z" fill="#f1f1f1" stroke="#f1f1f1" stroke-width="1.51"/><path d="M590,29L547,-11L549,36Z" fill="#7b7b7b" stroke="#7b7b7b" stroke-width="1.51"/><path d="M593,553L595,591L594,463Z" fill="#191919" stroke="#191919" stroke-width="1.51"/><path d="M548,596L595,591L545,554Z" fill="#161616" stroke="#161616" stroke-width="1.51"/><path d="M592,80L590,29L549,36Z" fill="#747474" stroke="#747474" stroke-width="1.51"/><path d="M594,-10L590,29L592,80Z" fill="#737373" stroke="#737373" stroke-width="1.51"/><path d="M-55,555L-59,597L-16,591Z" fill="#7c7c7c" stroke="#7c7c7c" stroke-width="1.51"/><path d="M-16,591L-59,597L31,590Z" fill="#777777" stroke="#777777" stroke-width="1.51"/><path d="M291,598L-59,597L508,599Z" fill="#515151" stroke="#515151" stroke-width="1.51"/><path d="M-57,375L-59,597L-56,425Z" fill="#9c9c9c" stroke="#9c9c9c" stroke-width="1.51"/><path d="M-60,74L-59,597L-57,375Z" fill="#b7b7b7" stroke="#b7b7b7" stroke-width="1.51"/><path d="M-10,-54L-15,-15L31,-10Z" fill="#f4f4f4" stroke="#f4f4f4" stroke-width="1.51"/><path d="M71,-55L33,-56L31,-10Z" fill="#f0f0f0" stroke="#f0f0f0" stroke-width="1.51"/><path d="M121,-59L33,-56L71,-55Z" fill="#ededed" stroke="#ededed" stroke-width="1.51"/><path d="M547,-11L509,-58L511,-7Z" fill="#878787" stroke="#878787" stroke-width="1.51"/><path d="M469,-54L509,-58L331,-59Z" fill="#a4a4a4" stroke="#a4a4a4" stroke-width="1.51"/><path d="M552,-54L509,-58L547,-11Z" fill="#868686" stroke="#868686" stroke-width="1.51"/><path d="M-54,-50L-55,-10L-15,-15Z" fill="#f7f7f7" stroke="#f7f7f7" stroke-width="1.51"/><path d="M-15,-15L-55,-10L-8,27Z" fill="#f4f4f4" stroke="#f4f4f4" stroke-width="1.51"/><path d="M590,29L594,-10L547,-11Z" fill="#797979" stroke="#797979" stroke-width="1.51"/><path d="M598,-56L594,-10L592,80Z" fill="#757575" stroke="#757575" stroke-width="1.51"/><path d="M33,-56L-10,-54L31,-10Z" fill="#f3f3f3" stroke="#f3f3f3" stroke-width="1.51"/><path d="M594,-10L552,-54L547,-11Z" fill="#7e7e7e" stroke="#7e7e7e" stroke-width="1.51"/><path d="M-10,-54L-54,-50L-15,-15Z" fill="#f7f7f7" stroke="#f7f7f7" stroke-width="1.51"/><path d="M-55,-10L-54,-50L-59,35Z" fill="#f7f7f7" stroke="#f7f7f7" stroke-width="1.51"/><path d="M552,-54L598,-56L509,-58Z" fill="#838383" stroke="#838383" stroke-width="1.51"/><path d="M594,-10L598,-56L552,-54Z" fill="#7c7c7c" stroke="#7c7c7c" stroke-width="1.51"/><path d="M597,204L598,-56L592,80Z" fill="#6d6d6d" stroke="#6d6d6d" stroke-width="1.51"/></svg>